<?xml version="1.0" standalone="no"?>
<!DOCTYPE svg PUBLIC "-//W3C//DTD SVG 20010904//EN"
 "http://www.w3.org/TR/2001/REC-SVG-20010904/DTD/svg10.dtd">
<svg version="1.0" xmlns="http://www.w3.org/2000/svg"
 width="1346.000000pt" height="1313.000000pt" viewBox="0 0 1346.000000 1313.000000"
 preserveAspectRatio="xMidYMid meet">

<g transform="translate(0.000000,1313.000000) scale(0.100000,-0.100000)"
fill="#000000" stroke="none">
<path d="M6485 13124 c-1710 -70 -3297 -761 -4494 -1955 -1105 -1102 -1778
-2507 -1946 -4059 -40 -378 -45 -939 -10 -1305 114 -1210 534 -2342 1231
-3315 57 -80 116 -160 131 -178 l28 -33 1383 68 c760 37 1382 70 1381 73 0 3
-39 30 -86 60 -227 146 -475 351 -713 590 -188 187 -284 297 -440 505 -370
492 -642 1060 -795 1660 -36 143 -86 392 -97 485 l-3 25 552 3 551 2 212 858
c117 471 219 886 228 922 15 61 16 63 24 35 5 -16 130 -741 278 -1610 149
-869 273 -1592 276 -1608 l6 -27 101 0 102 0 204 928 c112 510 207 936 211
947 7 20 7 20 13 0 3 -11 25 -101 47 -200 23 -99 45 -197 51 -217 l10 -38 639
0 640 0 1 73 c0 71 0 72 17 47 9 -14 62 -86 118 -160 392 -528 891 -990 1514
-1407 115 -77 180 -119 330 -212 14 -8 -49 61 -140 154 -1137 1170 -1618 1945
-1587 2559 7 141 41 281 88 362 195 341 536 458 809 277 145 -96 292 -307 385
-553 16 -41 31 -77 33 -80 9 -11 92 96 121 154 149 303 17 675 -322 905 -78
53 -229 120 -334 148 -86 23 -119 26 -263 27 -176 1 -261 -12 -400 -59 -112
-38 -188 -84 -276 -168 -325 -308 -495 -911 -384 -1366 25 -101 93 -245 185
-390 36 -57 65 -105 65 -107 0 -2 -242 -4 -538 -4 l-537 0 -90 388 -90 387
-101 3 -101 3 -6 -28 c-9 -43 -387 -1755 -394 -1781 -3 -13 -7 -21 -9 -20 -2
3 -247 1429 -545 3176 l-11 62 -102 0 -102 0 -263 -1067 c-145 -588 -268
-1078 -272 -1090 l-9 -23 -479 0 -480 0 -8 48 c-4 26 -8 209 -8 407 1 385 9
503 61 805 232 1364 1077 2578 2284 3280 1615 939 3637 834 5150 -267 364
-265 718 -612 987 -969 539 -716 850 -1518 938 -2419 19 -192 20 -660 2 -845
l-12 -125 -666 -3 -667 -2 68 137 c98 199 173 381 245 598 57 170 65 203 76
320 77 850 -421 1584 -1184 1747 -119 25 -349 30 -457 9 -407 -77 -741 -339
-959 -754 -45 -86 -49 -111 -25 -146 15 -21 23 -23 73 -19 51 4 62 9 136 69
98 79 171 124 307 189 322 153 649 185 922 90 288 -99 529 -377 655 -755 44
-131 54 -217 48 -385 -7 -173 -36 -322 -103 -531 -173 -539 -496 -1160 -1158
-2224 l-87 -140 278 280 c437 440 718 782 969 1180 l82 130 706 3 706 2 0 -24
c0 -41 -58 -310 -100 -467 -155 -573 -426 -1126 -785 -1604 -142 -189 -243
-304 -435 -496 -233 -234 -431 -400 -683 -571 l-98 -66 93 -6 c121 -8 2588
-126 2638 -126 38 0 40 3 128 123 738 1012 1164 2146 1284 3422 20 219 17 953
-5 1175 -73 720 -236 1370 -498 1993 -350 831 -922 1658 -1558 2255 -531 498
-1019 840 -1651 1156 -783 391 -1625 621 -2505 685 -157 12 -592 20 -730 15z
m-355 -855 l23 -351 61 5 c34 4 118 9 187 13 l126 7 7 -113 c4 -62 6 -113 4
-115 -5 -4 -602 -44 -605 -41 -6 6 -64 852 -61 891 l3 40 75 6 c41 3 93 6 116
7 l40 2 24 -351z m1395 336 c112 -30 171 -99 169 -200 -1 -91 -42 -156 -142
-224 -18 -13 -32 -27 -30 -32 2 -5 23 -36 47 -69 l45 -61 20 40 21 40 78 -30
c42 -17 77 -36 77 -43 0 -6 -15 -44 -34 -83 l-34 -71 49 -48 c27 -27 49 -53
49 -59 -1 -5 -29 -41 -64 -79 l-64 -69 -56 53 -56 53 -62 -29 c-57 -26 -73
-29 -173 -29 -129 0 -191 17 -253 70 -58 50 -86 114 -85 195 1 112 52 195 151
248 l60 32 -24 57 c-60 146 -1 305 126 341 52 15 119 14 185 -3z m-1920 -527
c132 -226 241 -417 243 -423 2 -6 -39 -20 -100 -34 -57 -12 -111 -24 -120 -27
-13 -4 -26 12 -53 65 -19 39 -39 71 -43 71 -4 -1 -61 -13 -127 -29 l-120 -28
-3 -39 c-1 -21 -4 -58 -8 -81 l-5 -42 -111 -26 c-61 -14 -113 -23 -116 -20 -6
6 54 879 64 940 5 30 8 31 117 57 62 14 119 26 127 27 10 0 101 -147 255 -411z
m2869 331 c166 -44 317 -84 337 -90 l36 -9 -29 -107 c-16 -59 -31 -109 -33
-112 -3 -2 -57 10 -120 26 -63 17 -115 30 -115 28 0 -9 -179 -667 -182 -670
-4 -5 -218 51 -225 59 -2 2 36 154 85 338 49 183 89 334 87 336 -2 2 -81 25
-182 52 -26 6 -43 17 -43 26 0 8 12 57 26 109 19 68 31 95 42 95 9 0 151 -36
316 -81z m-3693 -193 c21 -54 36 -102 34 -106 -2 -4 -50 -24 -105 -45 -55 -21
-103 -42 -106 -46 -3 -5 49 -150 115 -322 67 -173 121 -318 121 -324 0 -11
-210 -96 -218 -88 -2 2 -58 145 -124 317 -66 172 -123 317 -128 322 -4 4 -56
-10 -115 -33 -59 -23 -109 -40 -112 -38 -6 7 -84 210 -81 212 13 10 656 253
667 252 7 -1 31 -46 52 -101z m4542 -124 c202 -91 243 -116 283 -168 40 -52
45 -144 13 -229 -40 -107 -140 -185 -238 -185 -33 0 -40 -10 -17 -29 25 -21
36 -106 36 -278 0 -153 -1 -165 -17 -159 -10 4 -66 28 -125 53 l-106 47 -4
199 -3 199 -28 24 c-15 13 -32 24 -36 24 -5 0 -41 -73 -81 -162 -39 -90 -75
-166 -79 -171 -5 -5 -199 72 -219 88 -1 1 75 175 169 386 94 211 180 403 190
426 l18 42 33 -13 c18 -8 113 -50 211 -94z m-5258 -542 c125 -217 230 -398
232 -402 4 -8 -37 -35 -138 -91 l-66 -37 -232 401 c-148 256 -229 405 -222
412 10 10 195 117 197 114 1 -1 104 -180 229 -397z m-596 52 c54 -25 126 -104
163 -179 27 -56 33 -79 33 -133 0 -57 -5 -74 -30 -116 -18 -28 -57 -68 -91
-94 -33 -25 -72 -54 -87 -65 l-26 -20 99 -140 c55 -76 98 -141 96 -143 -2 -2
-46 -32 -97 -68 -88 -61 -94 -63 -110 -47 -28 31 -512 727 -513 739 -2 18 343
256 399 276 56 20 107 17 164 -10z m6805 -53 l103 -71 -27 -86 c-130 -414
-264 -829 -270 -835 -10 -12 -200 122 -200 140 0 7 11 41 25 75 14 34 22 65
18 68 -5 4 -54 39 -111 79 l-102 72 -60 -52 -60 -52 -78 53 c-42 29 -87 61
-100 71 -22 17 -22 18 360 313 211 163 386 296 391 296 5 0 55 -32 111 -71z
m603 -471 l42 -43 -206 -220 c-113 -121 -211 -232 -219 -247 -8 -15 -14 -46
-14 -69 0 -35 6 -47 40 -81 38 -38 43 -40 89 -36 64 6 75 16 311 270 l192 207
89 -82 88 -82 -48 -50 c-26 -27 -116 -124 -201 -215 -226 -244 -277 -280 -411
-288 -103 -6 -163 21 -265 120 -96 93 -128 156 -127 247 3 133 34 182 304 473
l202 218 46 -39 c25 -22 65 -59 88 -83z m-8103 -38 c22 -11 53 -30 68 -42 l27
-23 -75 -82 -75 -82 -37 19 c-52 28 -85 25 -127 -11 -43 -38 -49 -88 -13 -113
33 -23 48 -20 132 24 115 61 220 93 283 87 100 -10 186 -77 244 -187 35 -67
34 -186 -3 -255 -34 -66 -156 -181 -225 -212 -98 -45 -228 -21 -319 60 l-34
29 77 82 77 83 48 -30 c64 -40 118 -34 165 17 41 44 43 83 7 125 -37 45 -81
42 -202 -13 -53 -25 -119 -50 -145 -57 -90 -22 -180 4 -247 71 -50 50 -73 104
-78 181 -5 84 15 132 88 212 125 137 245 176 364 117z m8834 -724 l90 -124
-188 -208 c-103 -115 -187 -210 -185 -212 1 -1 117 49 258 112 l256 114 91
-125 c49 -68 90 -126 90 -128 0 -5 -728 -535 -744 -541 -12 -5 -116 126 -116
146 0 5 119 96 265 201 145 106 263 194 262 196 -2 1 -140 -58 -308 -133 -207
-92 -308 -133 -318 -127 -8 5 -34 36 -58 70 l-44 61 238 263 c131 145 231 259
223 254 -8 -5 -134 -96 -279 -202 -145 -106 -268 -190 -272 -187 -5 2 -31 37
-59 76 -48 69 -49 73 -33 89 27 26 724 529 733 529 4 0 48 -56 98 -124z
m-9385 30 c151 -62 309 -199 368 -321 31 -64 34 -77 34 -165 0 -89 -2 -99 -33
-157 -45 -82 -132 -169 -201 -202 -76 -35 -206 -36 -294 -2 -142 56 -312 207
-371 330 -27 58 -31 77 -31 151 0 74 4 93 31 150 56 117 155 206 263 237 61
17 161 8 234 -21z m-20 -1126 c4 -4 -17 -54 -48 -112 l-55 -105 -166 84 c-91
47 -167 83 -168 81 -5 -6 -116 -221 -116 -225 0 -1 73 -39 163 -84 89 -45 164
-83 167 -86 5 -5 -101 -213 -108 -213 -2 0 -190 95 -418 211 l-415 211 52 96
c28 54 55 101 59 105 4 5 71 -24 150 -63 78 -39 143 -70 145 -68 1 2 28 53 59
115 l56 112 -143 72 c-78 39 -143 73 -145 74 -4 3 86 185 100 202 8 9 110 -38
417 -194 223 -113 410 -209 414 -213z m10120 -47 l59 -116 -54 -53 c-210 -207
-643 -624 -648 -624 -3 0 -30 49 -59 109 l-54 109 34 30 c19 17 46 39 59 50
l25 20 -60 121 c-32 67 -64 121 -70 121 -5 0 -35 -7 -65 -15 -30 -8 -62 -15
-70 -15 -10 0 -36 41 -68 106 -29 59 -52 107 -50 109 4 3 926 163 948 164 10
1 36 -40 73 -116z m-10613 -1030 c0 -3 -14 -57 -32 -120 l-31 -113 -81 0 -81
0 -36 -127 -36 -128 66 -38 c36 -22 67 -40 68 -41 6 -5 -63 -228 -70 -228 -20
0 -807 525 -807 539 0 20 60 226 68 235 4 4 176 11 382 16 521 12 590 13 590
5z m10886 -50 c100 -39 167 -111 204 -219 45 -130 33 -249 -33 -332 -30 -38
-130 -122 -146 -122 -3 0 -29 41 -57 92 l-51 91 43 41 c53 51 65 98 38 152
-11 21 -31 46 -45 57 -41 29 -129 33 -231 8 -199 -47 -271 -126 -219 -235 26
-52 73 -76 152 -76 l52 0 -6 -37 c-3 -21 -9 -71 -13 -111 -4 -49 -12 -76 -21
-79 -22 -9 -162 16 -207 36 -94 41 -152 120 -182 248 -20 86 -14 176 16 239
61 125 228 228 428 264 76 14 220 5 278 -17z m-11536 -799 c228 -19 417 -37
418 -39 2 -2 1 -56 -3 -119 l-7 -116 -32 0 c-17 0 -100 7 -185 15 -85 8 -156
13 -159 11 -6 -6 -26 -246 -21 -251 2 -2 85 -11 184 -20 99 -9 181 -18 183
-20 5 -5 -15 -225 -21 -231 -5 -5 -918 74 -924 80 -5 4 16 228 21 233 3 4 211
-13 282 -22 l41 -6 10 128 c6 70 10 129 9 130 -1 1 -72 8 -159 16 -87 8 -159
16 -161 18 -1 2 2 57 7 122 l10 119 46 -6 c25 -3 233 -22 461 -42z m11883
-401 c15 -174 26 -317 25 -318 -2 -2 -46 -6 -99 -10 l-96 -7 -6 44 c-4 23 -12
112 -18 196 l-13 152 -60 0 c-34 0 -67 -4 -74 -8 -10 -7 -9 -41 3 -173 8 -90
15 -171 15 -180 0 -14 -16 -18 -91 -24 -49 -4 -92 -5 -95 -3 -4 5 -34 300 -34
342 0 17 -6 18 -86 13 -47 -2 -88 -7 -91 -10 -3 -3 2 -94 12 -202 9 -108 15
-198 13 -201 -6 -5 -201 -24 -205 -20 -5 5 -61 641 -57 645 5 5 810 78 879 80
l51 1 27 -317z m-11658 -529 c70 -25 117 -77 139 -155 23 -80 57 -520 41 -524
-15 -5 -917 -66 -920 -63 -2 2 -11 113 -20 248 -19 274 -16 305 36 364 50 58
106 79 198 75 84 -4 133 -27 164 -78 l15 -25 17 39 c26 64 72 104 145 126 44
13 135 10 185 -7z m11204 -34 c234 -17 438 -30 454 -30 l28 0 -6 -107 c-4 -60
-12 -113 -19 -120 -6 -6 -126 -66 -266 -132 -140 -67 -248 -121 -240 -122 8 0
121 -8 250 -17 l235 -17 -2 -109 c-1 -59 -4 -111 -7 -113 -3 -3 -207 9 -453
26 -246 17 -454 31 -460 31 -15 0 -16 38 -7 153 l7 76 258 123 c143 68 255
124 250 126 -6 2 -117 11 -248 20 l-238 17 3 75 c4 104 12 150 25 150 7 0 203
-14 436 -30z m-10970 -845 c11 -56 21 -106 21 -113 0 -7 -31 -26 -70 -43 -64
-29 -69 -33 -64 -58 3 -14 16 -73 28 -131 l22 -105 80 -5 79 -5 22 -95 c29
-126 29 -140 1 -140 -55 0 -934 83 -941 89 -13 12 -61 255 -51 258 5 2 196
108 424 237 259 146 417 229 421 222 4 -6 16 -56 28 -111z m11250 -155 c46
-10 86 -22 89 -25 6 -6 -147 -686 -157 -697 -6 -7 -208 35 -218 46 -3 3 6 56
20 118 14 62 25 114 23 115 -2 2 -153 38 -337 80 -184 42 -336 78 -338 80 -5
3 40 209 49 223 4 6 127 -18 330 -65 178 -41 331 -75 340 -75 13 0 21 19 35
81 30 143 33 150 58 144 12 -3 60 -14 106 -25z m-11027 -673 l47 -122 -140
-141 c-115 -117 -139 -146 -139 -170 0 -58 5 -58 184 11 92 36 172 65 176 65
13 0 92 -212 83 -221 -19 -18 -855 -331 -863 -323 -5 5 -45 106 -90 224 -115
300 -117 355 -16 448 109 101 295 109 381 16 l24 -26 7 29 c4 15 13 42 22 58
17 35 263 287 271 279 3 -3 27 -60 53 -127z m10503 -137 c204 -78 372 -143
374 -145 6 -6 -159 -427 -184 -471 -68 -116 -188 -143 -332 -75 -95 45 -153
129 -153 221 l0 33 -24 -22 c-38 -36 -102 -49 -281 -56 -142 -7 -167 -6 -163
6 3 8 24 64 48 126 l43 112 51 5 c28 3 107 8 176 11 149 7 185 17 205 55 l14
28 -164 63 c-91 34 -170 66 -177 70 -9 6 -3 30 21 96 19 48 37 98 42 111 l9
22 62 -24 c35 -13 230 -88 433 -166z m-370 -864 c182 -114 331 -210 333 -215
2 -7 -307 -511 -327 -533 -7 -8 -171 89 -171 100 0 4 47 81 104 172 l104 165
-59 37 c-33 21 -61 38 -63 38 -2 0 -47 -70 -101 -156 -53 -85 -100 -154 -104
-152 -26 11 -151 94 -151 100 0 4 43 76 95 160 l95 152 -76 49 c-42 26 -77 47
-79 45 -1 -2 -51 -80 -110 -175 l-107 -172 -86 54 c-48 30 -87 58 -87 62 0 5
76 131 169 280 l170 271 60 -38 c34 -21 210 -131 391 -244z m-10130 29 c47
-19 101 -79 150 -165 l46 -78 145 84 c80 46 148 84 152 84 7 0 124 -201 120
-206 -20 -19 -804 -462 -810 -456 -19 20 -219 380 -228 411 -34 123 32 232
188 311 81 40 165 45 237 15z"/>
<path d="M7400 12450 c-11 -11 -20 -32 -20 -47 0 -34 35 -113 49 -113 6 0 28
17 51 38 32 31 40 46 40 74 0 21 -7 41 -18 51 -25 23 -78 21 -102 -3z"/>
<path d="M7297 12048 c-54 -39 -71 -103 -42 -158 21 -41 53 -60 103 -60 41 0
112 22 112 35 0 4 -33 51 -73 104 l-73 98 -27 -19z"/>
<path d="M5287 12098 c-10 -173 -9 -221 6 -215 6 2 39 10 72 17 33 7 63 16 68
20 4 3 -26 70 -66 149 l-74 142 -6 -113z"/>
<path d="M9186 11843 c-21 -47 -36 -86 -34 -88 13 -11 108 -46 139 -51 33 -6
42 -3 69 24 23 24 30 39 30 70 0 47 -14 61 -101 100 l-66 30 -37 -85z"/>
<path d="M3257 11360 c-26 -16 -47 -33 -47 -37 0 -15 105 -162 116 -163 6 0
32 19 58 43 39 37 46 49 46 81 0 30 -7 45 -34 72 -43 43 -76 44 -139 4z"/>
<path d="M9991 11234 l-122 -106 68 -48 c57 -41 69 -46 74 -32 4 10 30 77 58
151 28 74 50 136 48 138 -2 1 -59 -45 -126 -103z"/>
<path d="M2002 10123 c-68 -33 -95 -105 -68 -178 22 -56 140 -168 219 -208 98
-50 188 -33 228 43 49 90 -6 190 -164 298 -87 60 -156 75 -215 45z"/>
<path d="M11930 9026 c-74 -18 -140 -34 -147 -37 -7 -2 2 -29 26 -77 l36 -72
105 91 c140 121 148 129 130 128 -8 -1 -76 -15 -150 -33z"/>
<path d="M952 7926 c3 -4 66 -43 140 -86 86 -50 135 -74 139 -66 11 19 42 136
38 141 -8 7 -324 18 -317 11z"/>
<path d="M1110 6127 c-42 -21 -53 -58 -45 -149 l7 -81 52 7 c28 3 69 6 91 6
l41 0 -4 68 c-5 92 -18 129 -52 147 -35 18 -57 19 -90 2z"/>
<path d="M736 6059 c-23 -18 -26 -27 -26 -84 0 -93 2 -95 74 -95 33 0 72 3 85
7 23 6 23 8 17 71 -7 65 -19 100 -40 114 -22 15 -83 8 -110 -13z"/>
<path d="M1055 5124 l-150 -72 51 -1 c28 -1 105 -4 171 -7 l120 -7 -16 76 c-9
41 -18 77 -21 80 -3 2 -72 -28 -155 -69z"/>
<path d="M1183 4270 c-36 -15 -56 -55 -49 -95 6 -31 41 -123 50 -133 8 -7 166
63 166 74 0 25 -42 110 -68 137 -27 28 -58 33 -99 17z"/>
<path d="M12161 4225 c-40 -107 -19 -168 62 -182 32 -5 40 -1 64 24 16 17 38
58 49 91 l22 60 -82 31 c-45 17 -85 31 -88 31 -4 0 -16 -25 -27 -55z"/>
<path d="M1602 3453 c-33 -16 -62 -57 -62 -88 0 -21 48 -115 59 -115 13 0 171
91 171 99 0 20 -63 103 -86 111 -34 13 -43 12 -82 -7z"/>
<path d="M8899 9748 c-89 -32 -171 -96 -220 -171 -56 -86 -72 -150 -67 -262 3
-78 9 -102 35 -156 79 -159 221 -249 394 -249 122 0 225 46 311 137 202 218
134 558 -138 685 -55 26 -81 32 -158 35 -76 3 -102 0 -157 -19z"/>
<path d="M6661 9064 c-124 -33 -227 -121 -283 -241 -24 -51 -33 -84 -36 -145
-11 -188 83 -345 254 -425 54 -26 69 -28 174 -28 105 0 120 2 174 28 172 80
266 239 253 427 -18 266 -279 453 -536 384z"/>
<path d="M8497 7175 c-84 -31 -162 -110 -192 -195 -17 -48 -20 -148 -5 -200
16 -57 65 -126 117 -164 130 -95 300 -82 415 31 67 66 93 129 92 228 0 132
-58 226 -176 285 -53 26 -72 30 -137 29 -42 0 -93 -7 -114 -14z"/>
<path d="M8370 6434 c-36 -7 -108 -34 -160 -60 -351 -173 -497 -646 -325
-1055 76 -179 235 -351 397 -430 59 -28 78 -17 78 45 0 30 -11 60 -41 111 -72
123 -129 244 -167 354 -35 103 -36 110 -37 256 0 135 2 156 24 208 64 161 210
264 386 275 242 14 430 -119 476 -336 19 -91 6 -266 -29 -402 -72 -276 -228
-606 -440 -934 l-65 -100 79 71 c115 103 262 258 319 335 69 93 177 274 235
393 102 210 147 409 137 594 -8 130 -26 201 -80 311 -56 116 -186 248 -298
303 -150 73 -328 96 -489 61z"/>
<path d="M5339 1950 c-45 -23 -59 -57 -66 -147 -5 -62 -9 -73 -24 -73 -16 0
-19 -8 -19 -55 0 -48 2 -55 20 -55 19 0 20 -7 20 -170 l0 -170 70 0 70 0 2
168 3 167 33 3 c32 3 32 4 32 58 l0 54 -35 0 c-34 0 -35 1 -35 38 0 43 14 62
47 62 22 0 23 4 23 70 l0 70 -52 0 c-32 -1 -67 -8 -89 -20z"/>
<path d="M9030 1830 c0 -77 -3 -140 -6 -140 -3 0 -19 11 -36 25 -21 18 -41 25
-72 25 -52 0 -80 -19 -108 -73 -30 -58 -38 -213 -13 -286 36 -109 117 -143
190 -80 l35 31 0 -26 c0 -26 1 -26 70 -26 l70 0 0 345 0 345 -65 0 -65 0 0
-140z m-20 -235 c20 -37 17 -148 -4 -180 -41 -63 -101 6 -93 106 6 74 20 99
56 99 19 0 32 -7 41 -25z"/>
<path d="M4041 1914 c-35 -45 -23 -94 26 -112 35 -12 67 0 88 31 47 72 -61
148 -114 81z"/>
<path d="M2305 1788 c-21 -79 -59 -225 -85 -325 l-48 -183 73 0 74 0 12 55 12
55 84 0 c72 0 83 -2 83 -17 0 -10 5 -35 11 -55 l10 -38 75 0 c70 0 75 1 69 19
-9 29 -165 620 -165 626 0 3 -38 5 -84 5 l-83 0 -38 -142z m140 -118 c9 -52
19 -110 22 -127 l6 -33 -52 0 c-45 0 -52 2 -47 18 5 15 13 60 41 217 9 48 10
46 30 -75z"/>
<path d="M3000 1695 c0 -132 5 -256 11 -285 21 -97 86 -143 204 -143 107 0
156 28 192 108 14 34 18 80 21 298 l4 257 -76 0 -76 0 0 -240 0 -241 -25 -24
c-29 -30 -58 -32 -85 -5 -19 19 -20 33 -20 265 l0 245 -75 0 -75 0 0 -235z"/>
<path d="M5892 1618 c-18 -172 -33 -319 -32 -325 0 -9 20 -13 64 -13 l64 0 6
38 c3 20 11 107 17 192 17 241 19 241 67 9 24 -112 46 -212 48 -221 4 -14 16
-18 52 -18 l47 0 44 220 c25 121 47 217 49 215 4 -4 40 -373 42 -422 0 -20
140 -18 140 2 0 8 -16 152 -35 319 -19 168 -35 308 -35 311 0 3 -42 5 -94 5
l-94 0 -11 -47 c-5 -27 -20 -105 -32 -175 -13 -70 -24 -126 -26 -125 -1 2 -12
57 -23 123 -11 65 -25 143 -31 172 l-10 52 -93 0 -92 0 -32 -312z"/>
<path d="M6900 1605 l0 -325 130 0 130 0 0 75 0 75 -60 0 -60 0 0 250 0 250
-70 0 -70 0 0 -325z"/>
<path d="M7530 1605 l0 -325 75 0 75 0 0 124 0 123 51 6 c124 15 189 82 189
195 0 98 -28 148 -105 183 -32 15 -65 19 -162 19 l-123 0 0 -325z m225 180
c14 -13 25 -35 25 -49 0 -32 -37 -72 -72 -80 l-28 -6 0 80 c0 79 0 80 25 80
14 0 37 -11 50 -25z"/>
<path d="M8400 1926 c0 -5 -157 -600 -165 -625 -6 -20 -3 -21 69 -21 l75 0 11
55 11 55 80 0 c55 0 81 -4 84 -12 2 -7 9 -32 15 -55 l11 -43 73 0 74 0 -44
168 c-24 92 -63 238 -85 325 l-42 157 -83 0 c-46 0 -84 -2 -84 -4z m130 -403
c0 -9 -17 -13 -51 -13 -43 0 -50 2 -45 18 4 13 42 216 47 251 1 8 48 -241 49
-256z"/>
<path d="M4300 1790 l0 -60 -30 0 c-30 0 -30 -1 -30 -54 0 -52 1 -55 28 -58
l27 -3 3 -167 2 -168 65 0 65 0 2 168 3 167 28 3 c26 3 27 6 27 57 0 51 -1 54
-27 57 -27 3 -28 6 -31 61 l-3 57 -64 0 -65 0 0 -60z"/>
<path d="M4935 1741 c-98 -24 -145 -101 -145 -236 0 -156 64 -235 190 -235
125 0 190 77 191 224 1 155 -52 234 -166 249 -22 3 -53 2 -70 -2z m79 -136
c33 -33 32 -160 -1 -197 -51 -57 -104 28 -87 138 10 68 51 96 88 59z"/>
<path d="M10726 1740 c-96 -29 -148 -178 -112 -319 9 -35 25 -76 37 -92 40
-57 113 -74 184 -45 34 15 35 17 35 71 l0 55 -37 -6 c-32 -5 -42 -2 -62 20
-31 33 -39 101 -17 144 18 34 51 48 92 38 25 -7 25 -6 22 51 -3 50 -6 59 -28
69 -39 18 -82 23 -114 14z"/>
<path d="M11057 1736 c-77 -28 -117 -92 -125 -198 -8 -118 33 -219 103 -252
83 -39 177 -10 222 69 34 59 31 65 -31 65 -46 0 -56 -3 -70 -25 -32 -49 -96
-18 -96 47 l0 28 115 0 115 0 0 48 c0 159 -111 262 -233 218z m91 -113 c5 -10
12 -30 16 -45 6 -28 6 -28 -49 -28 -60 0 -66 9 -45 64 7 20 17 26 39 26 19 0
34 -7 39 -17z"/>
<path d="M3724 1706 l-34 -34 0 29 0 29 -70 0 -70 0 0 -225 0 -225 70 0 70 0
0 153 c0 106 4 157 12 165 17 17 55 15 62 -4 3 -9 6 -83 6 -165 l0 -149 70 0
70 0 0 199 0 199 -26 31 c-22 27 -32 31 -76 31 -44 0 -54 -4 -84 -34z"/>
<path d="M9732 1724 c-45 -31 -66 -91 -70 -199 -3 -84 0 -109 18 -157 39 -104
116 -129 190 -62 l40 36 0 -31 0 -31 65 0 65 0 0 225 0 225 -70 0 c-69 0 -70
0 -70 -26 l0 -26 -29 31 c-24 26 -37 31 -73 31 -24 0 -54 -7 -66 -16z m153
-124 c25 -27 25 -148 1 -185 -36 -55 -85 -18 -93 72 -10 107 41 170 92 113z"/>
<path d="M10330 1704 l-40 -36 0 31 0 31 -65 0 -65 0 0 -225 0 -225 65 0 65 0
0 146 c0 154 7 184 43 184 43 0 47 -15 47 -177 l0 -153 71 0 70 0 -3 204 c-3
201 -3 205 -27 230 -20 21 -34 26 -73 26 -41 0 -54 -5 -88 -36z"/>
<path d="M4020 1505 l0 -225 70 0 70 0 0 225 0 225 -70 0 -70 0 0 -225z"/>
<path d="M9275 1593 c24 -76 55 -178 70 -226 l27 -88 56 3 56 3 68 220 c37
121 68 221 68 223 0 1 -31 2 -68 2 l-68 0 -24 -107 c-27 -126 -35 -146 -43
-112 -3 13 -15 68 -27 122 l-22 97 -68 0 -67 0 42 -137z"/>
<path d="M6663 1420 c-34 -14 -56 -54 -48 -90 14 -62 96 -82 134 -34 12 15 21
39 21 53 0 26 -31 71 -50 71 -4 0 -14 2 -22 4 -7 3 -23 1 -35 -4z"/>
<path d="M7301 1419 c-52 -21 -66 -77 -30 -123 39 -50 122 -26 135 40 10 54
-52 104 -105 83z"/>
<path d="M2920 535 l0 -345 70 0 70 0 0 345 0 345 -70 0 -70 0 0 -345z"/>
<path d="M3460 535 l0 -345 70 0 70 0 0 153 c0 83 4 158 9 165 5 8 21 12 37
10 l29 -3 3 -162 2 -163 70 0 70 0 0 199 0 199 -26 31 c-22 27 -32 31 -75 31
-40 0 -54 -5 -84 -31 l-35 -31 0 146 0 146 -70 0 -70 0 0 -345z"/>
<path d="M11630 740 c0 -77 -3 -140 -6 -140 -3 0 -19 11 -36 25 -21 18 -41 25
-72 25 -51 0 -80 -19 -109 -73 -19 -37 -22 -57 -22 -162 0 -105 3 -125 22
-162 29 -53 58 -73 106 -73 31 0 46 7 73 34 l34 34 0 -29 0 -29 70 0 70 0 0
345 0 345 -65 0 -65 0 0 -140z m-26 -229 c24 -27 25 -151 1 -187 -40 -62 -100
8 -92 107 3 31 10 66 16 78 15 26 52 27 75 2z"/>
<path d="M4340 839 c-200 -90 -243 -421 -75 -586 58 -56 99 -73 182 -73 81 0
83 2 83 84 l0 71 -64 0 c-50 0 -69 4 -86 20 -83 74 -79 267 6 334 24 19 38 22
87 19 l57 -4 0 72 c0 83 -1 84 -88 84 -35 0 -74 -8 -102 -21z"/>
<path d="M6190 838 c-60 -31 -90 -83 -90 -161 0 -81 18 -113 116 -205 90 -85
100 -106 63 -143 -17 -17 -29 -20 -61 -15 -22 4 -53 13 -69 22 l-29 15 0 -75
0 -74 34 -12 c45 -15 126 -15 170 0 19 6 50 29 70 50 88 97 64 227 -60 325
-93 74 -114 114 -76 148 23 21 52 21 99 2 19 -8 39 -15 44 -15 5 0 9 29 9 66
0 65 0 65 -35 80 -52 21 -133 18 -185 -8z"/>
<path d="M1460 515 l0 -325 75 0 75 0 0 140 0 140 65 0 65 0 0 -140 0 -140 75
0 75 0 0 325 0 325 -75 0 -75 0 0 -120 0 -120 -65 0 -65 0 0 120 0 120 -75 0
-75 0 0 -325z"/>
<path d="M9040 516 l0 -326 70 0 70 0 0 124 0 123 58 7 c106 12 174 71 188
164 13 84 -18 157 -85 203 -31 22 -47 24 -168 27 l-133 4 0 -326z m220 184
c38 -38 14 -130 -34 -130 -8 0 -21 -3 -30 -6 -14 -5 -16 5 -16 75 l0 81 30 0
c17 0 39 -9 50 -20z"/>
<path d="M10760 515 l0 -325 135 0 135 0 0 75 0 75 -60 0 -60 0 0 250 0 250
-75 0 -75 0 0 -325z"/>
<path d="M3190 700 c0 -57 -1 -60 -25 -60 -24 0 -25 -3 -25 -55 0 -52 1 -55
25 -55 l25 0 0 -170 0 -170 70 0 70 0 0 170 0 170 25 0 c24 0 25 3 25 55 0 52
-1 55 -25 55 -24 0 -25 3 -25 60 l0 60 -70 0 -70 0 0 -60z"/>
<path d="M7380 700 c0 -57 -1 -60 -25 -60 -24 0 -25 -3 -25 -55 0 -52 1 -55
25 -55 l25 0 0 -170 0 -170 70 0 70 0 0 170 0 170 25 0 c24 0 25 3 25 55 0 52
-1 55 -25 55 -24 0 -25 3 -25 60 l0 60 -70 0 -70 0 0 -60z"/>
<path d="M9960 700 c0 -57 -1 -60 -25 -60 -24 0 -25 -3 -25 -55 0 -52 1 -55
25 -55 l25 0 0 -170 0 -170 70 0 70 0 2 168 3 167 28 3 c26 3 27 6 27 58 0 53
0 54 -30 54 l-30 0 0 60 0 60 -70 0 -70 0 0 -60z"/>
<path d="M11130 700 c0 -57 -1 -60 -25 -60 -24 0 -25 -3 -25 -55 0 -52 1 -55
25 -55 l25 0 0 -170 0 -170 70 0 70 0 0 170 0 170 25 0 c24 0 25 3 25 55 0 52
-1 55 -25 55 -24 0 -25 3 -25 60 l0 60 -70 0 -70 0 0 -60z"/>
<path d="M2115 645 c-22 -8 -54 -30 -72 -51 -83 -94 -65 -318 30 -386 45 -32
152 -33 194 -2 29 22 56 62 68 102 6 21 4 22 -48 22 -47 0 -57 -3 -71 -25 -32
-49 -96 -18 -96 47 l0 28 116 0 117 0 -6 69 c-7 85 -35 143 -85 175 -49 31
-98 38 -147 21z m95 -114 c5 -11 10 -31 10 -45 0 -24 -3 -26 -50 -26 -47 0
-50 2 -50 26 0 41 18 64 50 64 19 0 33 -7 40 -19z"/>
<path d="M5540 648 c-89 -25 -135 -117 -128 -252 5 -94 30 -152 80 -188 46
-32 153 -33 195 -2 29 22 56 62 68 102 6 21 4 22 -52 22 -51 0 -60 -3 -68 -22
-12 -28 -56 -36 -74 -14 -7 9 -17 31 -21 51 l-8 35 119 0 119 0 0 38 c-1 57
-19 123 -45 163 -37 57 -119 86 -185 67z m90 -117 c5 -11 10 -31 10 -45 0 -24
-3 -26 -50 -26 -47 0 -50 2 -50 26 0 41 18 64 50 64 19 0 33 -7 40 -19z"/>
<path d="M7067 646 c-80 -29 -118 -98 -97 -174 12 -47 27 -61 108 -101 62 -31
73 -46 50 -69 -17 -17 -43 -15 -89 9 -23 11 -42 19 -44 17 -6 -7 -45 -88 -45
-93 0 -3 24 -17 53 -30 97 -46 197 -27 245 45 20 29 23 44 20 88 -6 64 -20 80
-108 124 -47 24 -65 38 -65 53 0 26 52 32 94 11 16 -9 34 -16 39 -16 6 0 52
82 52 94 0 2 -21 13 -47 24 -68 28 -121 34 -166 18z"/>
<path d="M7765 651 c-50 -12 -83 -40 -110 -94 -21 -42 -25 -65 -25 -132 0 -92
11 -134 48 -184 66 -88 215 -80 269 15 37 63 32 74 -31 74 -45 0 -56 -3 -61
-19 -7 -23 -37 -35 -65 -26 -16 5 -40 56 -40 88 0 4 55 7 121 7 l122 0 -7 60
c-9 79 -23 119 -55 153 -46 50 -109 72 -166 58z m83 -126 c25 -54 17 -65 -43
-65 l-54 0 6 33 c8 43 20 57 53 57 19 0 30 -7 38 -25z"/>
<path d="M8304 649 c-16 -5 -41 -20 -54 -34 -30 -32 -40 -32 -40 0 0 24 -2 25
-65 25 l-65 0 0 -225 0 -225 65 0 65 0 0 139 c0 157 8 191 43 191 43 0 47 -15
47 -177 l0 -153 70 0 70 0 0 153 c0 162 4 177 47 177 36 0 43 -30 43 -184 l0
-146 71 0 71 0 -4 199 c-3 183 -5 202 -24 227 -39 53 -110 52 -173 -2 -36 -31
-40 -33 -46 -15 -13 43 -67 65 -121 50z"/>
<path d="M2481 625 c-42 -36 -64 -110 -63 -216 1 -144 51 -229 134 -229 32 0
47 7 74 34 l34 34 0 -29 0 -29 70 0 70 0 0 225 0 225 -70 0 c-69 0 -70 0 -70
-27 l0 -27 -33 32 c-43 42 -101 44 -146 7z m163 -117 c24 -33 22 -159 -2 -188
-27 -34 -67 -21 -82 26 -15 44 -9 146 9 168 19 23 57 20 75 -6z"/>
<path d="M4652 620 c-45 -44 -57 -91 -57 -210 0 -89 4 -112 22 -147 30 -56 67
-83 114 -83 31 0 45 7 74 37 l35 36 0 -31 0 -32 70 0 70 0 0 225 0 225 -70 0
c-68 0 -70 -1 -70 -25 0 -32 -2 -31 -38 5 -25 24 -39 30 -75 30 -37 0 -51 -6
-75 -30z m174 -125 c29 -70 11 -180 -32 -191 -34 -9 -54 13 -65 68 -16 87 10
158 58 158 18 0 28 -9 39 -35z"/>
<path d="M5258 610 l-38 -41 0 36 0 35 -65 0 -65 0 0 -225 0 -225 70 0 70 0 0
140 c0 136 1 142 25 165 16 17 35 25 60 25 l35 0 0 65 c0 64 -1 65 -27 65 -18
0 -38 -13 -65 -40z"/>
<path d="M6503 628 c2 -7 34 -107 71 -221 l67 -208 -25 -87 c-15 -48 -26 -91
-26 -95 0 -4 30 -7 67 -5 l67 3 88 290 c48 160 89 300 93 313 5 21 3 22 -63
22 l-69 0 -27 -97 c-16 -54 -31 -107 -33 -117 -7 -27 -14 -12 -48 112 l-28
102 -70 0 c-51 0 -68 -3 -64 -12z"/>
<path d="M9492 626 c2 -7 32 -108 68 -225 l65 -211 56 0 55 0 67 218 c37 119
67 220 67 225 0 4 -29 7 -65 7 -59 0 -65 -2 -70 -22 -3 -13 -16 -68 -29 -122
-12 -55 -25 -96 -28 -90 -3 5 -13 43 -22 84 -9 41 -21 92 -27 113 l-10 37 -65
0 c-50 0 -65 -3 -62 -14z"/>
<path d="M10283 330 c-45 -18 -58 -95 -23 -130 48 -48 130 -11 130 59 0 57
-54 93 -107 71z"/>
<path d="M11931 329 c-52 -21 -66 -77 -30 -123 39 -50 122 -26 135 40 10 54
-52 104 -105 83z"/>
</g>
</svg>
