<svg width="73" height="72" viewBox="0 0 73 72" fill="none" xmlns="http://www.w3.org/2000/svg">
<g clip-path="url(#clip0_2_120)">
<path d="M66.4694 71.751H5.5455C2.62939 71.751 0.256958 69.3785 0.256958 66.4624V5.53854C0.256958 2.62243 2.62939 0.25 5.5455 0.25H66.4694C69.3855 0.25 71.7579 2.62243 71.7579 5.53854V66.4624C71.7579 69.3785 69.3855 71.751 66.4694 71.751Z" fill="white"/>
<path d="M5.54549 0.5C2.76723 0.5 0.506958 2.76028 0.506958 5.53854V66.4624C0.506958 69.2407 2.76723 71.501 5.54549 71.501H66.4694C69.2477 71.501 71.5079 69.2407 71.5079 66.4624V5.53854C71.5079 2.76028 69.2477 0.5 66.4694 0.5H5.54549ZM5.54549 0H66.4694C69.5282 0 72.0079 2.47969 72.0079 5.53854V66.4624C72.0079 69.5213 69.5282 72.001 66.4694 72.001H5.54549C2.48665 72.001 0.00695801 69.5213 0.00695801 66.4624V5.53854C0.00695801 2.47969 2.48665 0 5.54549 0Z" fill="#E7E8E8"/>
<path d="M47.702 33.743C47.702 30.875 45.468 28.915 43.673 27.343C42.539 26.348 41.468 25.409 41.473 24.681C41.503 22.19 41.473 16.231 41.473 16.172C41.4719 15.9677 41.39 15.7721 41.2451 15.628C41.1003 15.4839 40.9043 15.403 40.7 15.403H31.5549C31.3506 15.403 31.1546 15.4839 31.0098 15.628C30.8649 15.7721 30.783 15.9677 30.7819 16.172C30.7819 16.232 30.7519 22.191 30.7819 24.681C30.7909 25.408 29.72 26.348 28.582 27.343C26.787 28.918 24.5529 30.877 24.5529 33.743C24.5526 34.3343 24.6434 34.9222 24.822 35.486C23.37 39.756 25.7829 42.036 27.9219 44.051C29.3219 45.367 30.636 46.611 30.78 48.301V55.786C30.78 55.991 30.8614 56.1876 31.0064 56.3326C31.1513 56.4775 31.3479 56.559 31.5529 56.559H40.702C40.907 56.559 41.1036 56.4775 41.2485 56.3326C41.3935 56.1876 41.4749 55.991 41.4749 55.786V48.301C41.6189 46.611 42.937 45.367 44.333 44.051C46.47 42.036 48.8829 39.756 47.4329 35.486C47.6115 34.9222 47.7023 34.3343 47.702 33.743V33.743ZM29.6019 28.502C31.0719 27.212 32.342 26.102 32.325 24.66C32.302 22.718 32.315 18.645 32.325 16.946H39.9329C39.9399 18.646 39.9529 22.718 39.9329 24.66C39.9159 26.099 41.186 27.212 42.656 28.502C44.298 29.942 46.156 31.574 46.156 33.743C46.1546 34.8668 45.7076 35.9443 44.9129 36.739C44.1182 37.5336 43.0408 37.9807 41.9169 37.982C41.4468 37.97 40.9837 37.8647 40.5545 37.6722C40.1254 37.4798 39.7387 37.204 39.4169 36.861C38.5456 36.0068 37.4113 35.4719 36.198 35.343H36.1329H36.0679C34.8546 35.4718 33.7203 36.0067 32.849 36.861C32.5272 37.204 32.1405 37.4797 31.7114 37.6722C31.2822 37.8646 30.8191 37.9699 30.349 37.982C29.2251 37.9807 28.1477 37.5336 27.353 36.739C26.5583 35.9443 26.1113 34.8668 26.1099 33.743C26.1039 31.574 27.965 29.942 29.606 28.502H29.6019ZM43.27 42.926C41.715 44.393 40.106 45.91 39.929 48.21C39.929 48.23 39.929 48.249 39.929 48.269V55.01H32.3289V48.27C32.3289 48.25 32.3289 48.231 32.3289 48.211C32.1519 45.911 30.5439 44.393 28.9879 42.927C27.2759 41.312 25.7559 39.877 25.9589 37.508C26.5009 38.1415 27.1737 38.6501 27.931 38.9988C28.6884 39.3475 29.5122 39.5281 30.346 39.528C31.6571 39.5098 32.9092 38.9797 33.835 38.051C34.1 37.6907 34.446 37.3978 34.8451 37.1959C35.2442 36.994 35.6852 36.8888 36.1325 36.8888C36.5797 36.8888 37.0207 36.994 37.4198 37.1959C37.8189 37.3978 38.1649 37.6907 38.4299 38.051C39.3559 38.9799 40.6084 39.51 41.9199 39.528C42.7537 39.5281 43.5775 39.3475 44.3349 38.9988C45.0922 38.6501 45.765 38.1415 46.307 37.508C46.506 39.876 44.9869 41.31 43.2739 42.926H43.27Z" fill="#6095CF"/>
<path d="M36.507 43.9992C25.755 43.9992 17.007 41.2488 17.007 37.8688C17.007 36.9058 17.701 35.9831 19.069 35.1271C20.7903 34.1481 22.6511 33.4379 24.587 33.0212L24.5699 33.029V34.3288C23.1981 34.6589 21.8835 35.1928 20.67 35.9128C19.718 36.5318 19.235 37.1898 19.235 37.8698C19.235 40.5698 26.983 42.7702 36.506 42.7702C46.029 42.7702 53.777 40.5698 53.777 37.8698C53.777 36.4338 51.5637 35.0698 47.7037 34.1388L47.611 32.8591L47.569 32.8249C52.852 33.9729 56.006 35.8608 56.006 37.8698C56.007 41.2498 47.259 43.9992 36.507 43.9992Z" fill="#6095CF"/>
</g>
<defs>
<clipPath id="clip0_2_120">
<rect width="72.001" height="72.001" fill="white" transform="translate(0.00695801)"/>
</clipPath>
</defs>
</svg>
