<svg width="73" height="72" viewBox="0 0 73 72" fill="none" xmlns="http://www.w3.org/2000/svg">
<g clip-path="url(#clip0_2_104)">
<path d="M66.4684 71.751H5.54452C2.62841 71.751 0.255981 69.3785 0.255981 66.4624V5.53854C0.255981 2.62243 2.62841 0.25 5.54452 0.25H66.4684C69.3845 0.25 71.757 2.62243 71.757 5.53854V66.4624C71.757 69.3785 69.3845 71.751 66.4684 71.751Z" fill="white"/>
<path d="M5.54452 0.5C2.76626 0.5 0.505981 2.76028 0.505981 5.53854V66.4624C0.505981 69.2407 2.76626 71.501 5.54452 71.501H66.4684C69.2467 71.501 71.507 69.2407 71.507 66.4624V5.53854C71.507 2.76028 69.2467 0.5 66.4684 0.5H5.54452ZM5.54452 0H66.4684C69.5273 0 72.007 2.47969 72.007 5.53854V66.4624C72.007 69.5213 69.5273 72.001 66.4684 72.001H5.54452C2.48567 72.001 0.00598145 69.5213 0.00598145 66.4624V5.53854C0.00598145 2.47969 2.48567 0 5.54452 0Z" fill="#E7E8E8"/>
<path d="M36.7861 36.8021C36.8118 36.9369 36.7953 37.0765 36.7388 37.2016C36.6823 37.3267 36.5886 37.4313 36.4704 37.5012C36.3522 37.571 36.2153 37.6028 36.0784 37.592C35.9416 37.5812 35.8114 37.5285 35.7056 37.441C35.5998 37.3535 35.5237 37.2354 35.4875 37.103C35.4513 36.9705 35.4568 36.8302 35.5033 36.701C35.5499 36.5718 35.6351 36.4602 35.7475 36.3813C35.8598 36.3024 35.9937 36.26 36.131 36.2601C36.2895 36.2464 36.447 36.2955 36.5695 36.3969C36.692 36.4983 36.7699 36.6438 36.7861 36.8021V36.8021Z" fill="#EFA803"/>
<path d="M30.95 50.1457C30.4245 48.8233 30.4232 49.4421 29.5506 48.2089C29.2627 47.8035 28.9672 47.3847 28.683 46.9616C28.1334 45.9764 27.7842 44.8921 27.6558 43.7714C27.4598 41.9886 26.7898 40.2909 25.7155 38.8547L26.1314 38.5085C27.2675 40.0131 27.9771 41.7962 28.1853 43.67C28.3048 44.7185 28.6255 45.7341 29.13 46.6611C29.4107 47.078 29.704 47.4941 29.9895 47.8968C30.8416 49.1018 30.9007 48.5648 31.451 49.9455L30.95 50.1457Z" fill="#6095CF" stroke="#6095CF" stroke-width="0.500059"/>
<path d="M36.7861 36.8021C36.8118 36.9369 36.7953 37.0765 36.7388 37.2016C36.6823 37.3267 36.5886 37.4313 36.4704 37.5012C36.3522 37.571 36.2153 37.6028 36.0784 37.592C35.9416 37.5812 35.8114 37.5285 35.7056 37.441C35.5998 37.3535 35.5237 37.2354 35.4875 37.103C35.4513 36.9705 35.4568 36.8302 35.5033 36.701C35.5499 36.5718 35.6351 36.4602 35.7475 36.3813C35.8598 36.3024 35.9937 36.26 36.131 36.2601C36.2895 36.2464 36.447 36.2955 36.5695 36.3969C36.692 36.4983 36.7699 36.6438 36.7861 36.8021V36.8021Z" fill="#6095CF"/>
<path d="M48.124 19.999C48.124 19.999 38.9951 21.612 35.9041 21.599C32.9671 21.584 24.304 19.999 24.304 19.999C24.5734 21.3551 24.7541 22.7274 24.845 24.1071C24.9509 26.455 24.7333 28.8064 24.198 31.095C22.919 36.695 17.998 41.85 17.998 47.777C17.998 47.777 23.0181 49.089 28.2791 50.177C30.7981 50.7579 33.3608 51.1299 35.941 51.2891C40.555 51.2961 54.187 47.78 54.187 47.78C54.187 41.853 49.053 36.699 47.774 31.098C47.11 28.156 47.491 23.742 48.124 19.999Z" stroke="#6095CF" stroke-width="1.4"/>
</g>
<defs>
<clipPath id="clip0_2_104">
<rect width="72.001" height="72.001" fill="white" transform="translate(0.00598145)"/>
</clipPath>
</defs>
</svg>
