<svg width="73" height="72" viewBox="0 0 73 72" fill="none" xmlns="http://www.w3.org/2000/svg">
<g clip-path="url(#clip0_2_22)">
<path d="M66.4634 71.751H5.53954C2.62343 71.751 0.250999 69.3785 0.250999 66.4624V5.53854C0.250999 2.62243 2.62343 0.25 5.53954 0.25H66.4634C69.3795 0.25 71.752 2.62243 71.752 5.53854V66.4624C71.752 69.3785 69.3795 71.751 66.4634 71.751Z" fill="white"/>
<path d="M5.53954 0.5C2.76128 0.5 0.500999 2.76028 0.500999 5.53854V66.4624C0.500999 69.2407 2.76128 71.501 5.53954 71.501H66.4634C69.2417 71.501 71.502 69.2407 71.502 66.4624V5.53854C71.502 2.76028 69.2417 0.5 66.4634 0.5H5.53954ZM5.53954 0H66.4634C69.5223 0 72.002 2.47969 72.002 5.53854V66.4624C72.002 69.5213 69.5223 72.001 66.4634 72.001H5.53954C2.48069 72.001 0.000999451 69.5213 0.000999451 66.4624V5.53854C0.000999451 2.47969 2.48069 0 5.53954 0Z" fill="#E7E8E8"/>
<path d="M36.202 30.666C37.2773 30.666 38.3285 30.9849 39.2226 31.5823C40.1167 32.1797 40.8136 33.0289 41.2251 34.0224C41.6366 35.0158 41.7443 36.109 41.5345 37.1637C41.3247 38.2184 40.8069 39.1872 40.0465 39.9475C39.2862 40.7079 38.3174 41.2257 37.2627 41.4355C36.208 41.6453 35.1148 41.5376 34.1213 41.1261C33.1279 40.7146 32.2787 40.0177 31.6813 39.1236C31.0839 38.2295 30.765 37.1783 30.765 36.103C30.765 34.661 31.3378 33.2781 32.3575 32.2585C33.3771 31.2388 34.76 30.666 36.202 30.666V30.666Z" fill="#6095CF"/>
<path d="M58.005 35.415C57.605 34.994 48.134 25.063 36.2 25.063C24.266 25.063 14.793 34.993 14.397 35.415C14.2212 35.6007 14.1232 35.8468 14.1232 36.1025C14.1232 36.3583 14.2212 36.6043 14.397 36.79C14.797 37.211 24.267 47.146 36.197 47.146C48.127 47.146 57.61 37.211 58.005 36.79C58.1808 36.6043 58.2788 36.3583 58.2788 36.1025C58.2788 35.8468 58.1808 35.6007 58.005 35.415V35.415ZM36.205 44.508C34.5426 44.5076 32.9176 44.0143 31.5355 43.0904C30.1534 42.1666 29.0763 40.8537 28.4404 39.3177C27.8044 37.7817 27.6382 36.0917 27.9627 34.4612C28.2872 32.8308 29.0878 31.3332 30.2634 30.1577C31.439 28.9823 32.9367 28.1818 34.5672 27.8575C36.1977 27.5332 37.8877 27.6996 39.4236 28.3358C40.9595 28.9719 42.2723 30.0492 43.196 31.4314C44.1197 32.8135 44.6128 34.4386 44.613 36.101C44.6133 37.2052 44.3959 38.2986 43.9735 39.3188C43.551 40.3389 42.9317 41.2659 42.1509 42.0466C41.3701 42.8273 40.443 43.4465 39.4228 43.8689C38.4026 44.2912 37.3092 44.5084 36.205 44.508V44.508ZM29.538 28.167C28.3663 29.131 27.4225 30.3426 26.7746 31.7146C26.1267 33.0867 25.7907 34.5852 25.7907 36.1025C25.7907 37.6198 26.1267 39.1183 26.7746 40.4904C27.4225 41.8624 28.3663 43.074 29.538 44.038C24.7016 42.3339 20.2785 39.6298 16.557 36.102C20.2791 32.5752 24.702 29.8715 29.538 28.167V28.167ZM42.868 44.035C44.0401 43.0719 44.9842 41.861 45.6324 40.4894C46.2806 39.1178 46.6168 37.6196 46.6168 36.1025C46.6168 34.5854 46.2806 33.0872 45.6324 31.7156C44.9842 30.344 44.0401 29.1331 42.868 28.17C47.703 29.8733 52.125 32.576 55.846 36.102C52.1236 39.6272 47.7016 42.3303 42.867 44.036L42.868 44.035Z" fill="#6095CF" stroke="white" stroke-width="0.4"/>
<path opacity="0.604" d="M38.255 37.766C39.639 37.766 40.761 36.644 40.761 35.26C40.761 33.876 39.639 32.754 38.255 32.754C36.871 32.754 35.749 33.876 35.749 35.26C35.749 36.644 36.871 37.766 38.255 37.766Z" fill="white"/>
</g>
<defs>
<clipPath id="clip0_2_22">
<rect width="72.001" height="72.001" fill="white" transform="translate(0.000999451)"/>
</clipPath>
</defs>
</svg>
