<svg width="73" height="72" viewBox="0 0 73 72" fill="none" xmlns="http://www.w3.org/2000/svg">
<g clip-path="url(#clip0_2_237)">
<path d="M66.4664 71.751H5.54254C2.62643 71.751 0.253998 69.3785 0.253998 66.4624V5.53854C0.253998 2.62243 2.62643 0.249998 5.54254 0.249998H66.4664C69.3825 0.249998 71.755 2.62243 71.755 5.53854V66.4624C71.755 69.3785 69.3825 71.751 66.4664 71.751Z" fill="white"/>
<path d="M5.54253 0.5C2.76427 0.5 0.503998 2.76028 0.503998 5.53854V66.4624C0.503998 69.2407 2.76427 71.501 5.54253 71.501H66.4664C69.2447 71.501 71.505 69.2407 71.505 66.4624V5.53854C71.505 2.76028 69.2447 0.5 66.4664 0.5H5.54253ZM5.54253 0H66.4664C69.5253 0 72.005 2.47969 72.005 5.53854V66.4624C72.005 69.5213 69.5253 72.001 66.4664 72.001H5.54253C2.48369 72.001 0.0039978 69.5213 0.0039978 66.4624V5.53854C0.0039978 2.47969 2.48369 0 5.54253 0Z" fill="#E7E8E8"/>
<path d="M31.51 41.903H29.79V29.073H27.542C25.8224 29.0517 24.1805 28.3537 22.972 27.1302C21.7635 25.9067 21.0858 24.2562 21.0858 22.5365C21.0858 20.8168 21.7635 19.1663 22.972 17.9428C24.1805 16.7193 25.8224 16.0213 27.542 16H45.342V17.72H27.542C26.2646 17.72 25.0395 18.2275 24.1362 19.1307C23.2329 20.034 22.7255 21.2591 22.7255 22.5365C22.7255 23.8139 23.2329 25.039 24.1362 25.9423C25.0395 26.8455 26.2646 27.353 27.542 27.353H31.511L31.51 41.903Z" fill="#6095CF"/>
<path d="M41.182 41.903L41.14 27.353H45.111C46.3884 27.353 47.6135 26.8455 48.5168 25.9423C49.4201 25.039 49.9275 23.8139 49.9275 22.5365C49.9275 21.2591 49.4201 20.034 48.5168 19.1307C47.6135 18.2275 46.3884 17.72 45.111 17.72V16C46.8306 16.0213 48.4725 16.7193 49.681 17.9428C50.8895 19.1663 51.5671 20.8168 51.5671 22.5365C51.5671 24.2562 50.8895 25.9067 49.681 27.1302C48.4725 28.3537 46.8306 29.0517 45.111 29.073H42.865L42.902 41.897L41.182 41.903Z" fill="#6095CF"/>
<path d="M30.397 43.119H29.714V44.839H30.397V43.119Z" fill="#6095CF"/>
<path d="M41.542 44.836H40.134V43.116H41.542V44.836ZM39.313 44.836H37.905V43.116H39.313V44.836ZM37.084 44.836H35.676V43.116H37.084V44.836ZM34.855 44.836H33.45V43.116H34.85L34.855 44.836ZM32.626 44.836H31.218V43.116H32.626V44.836Z" fill="#6095CF"/>
<path d="M43.047 43.119H42.364V44.839H43.047V43.119Z" fill="#6095CF"/>
<path d="M36.524 56.021C34.7376 56.0189 33.025 55.3083 31.7619 54.0452C30.4987 52.782 29.7881 51.0694 29.786 49.283V46.228H31.506V49.279C31.4966 49.9439 31.6195 50.604 31.8674 51.2209C32.1153 51.8379 32.4834 52.3995 32.9503 52.873C33.4171 53.3465 33.9734 53.7224 34.5869 53.979C35.2003 54.2357 35.8586 54.3678 36.5235 54.3678C37.1884 54.3678 37.8467 54.2357 38.4601 53.979C39.0736 53.7224 39.6299 53.3465 40.0967 52.873C40.5636 52.3995 40.9317 51.8379 41.1796 51.2209C41.4275 50.604 41.5504 49.9439 41.541 49.279V46.228H43.261V49.279C43.2602 51.066 42.5503 52.7796 41.2872 54.0437C40.0241 55.3077 38.311 56.0189 36.524 56.021Z" fill="#6095CF"/>
<path d="M37.244 53.35H35.524V51.985H37.244V53.35ZM37.244 51.188H35.524V49.823H37.244V51.188ZM37.244 49.026H35.524V47.661H37.244V49.026ZM37.244 46.864H35.524V45.499H37.244V46.864ZM37.244 44.702H35.524V43.337H37.244V44.702Z" fill="#6095CF"/>
</g>
<defs>
<clipPath id="clip0_2_237">
<rect width="72.001" height="72.001" fill="white" transform="translate(0.0039978)"/>
</clipPath>
</defs>
</svg>
