<svg width="73" height="72" viewBox="0 0 73 72" fill="none" xmlns="http://www.w3.org/2000/svg">
<g clip-path="url(#clip0_2_295)">
<path d="M66.4694 71.751H5.5455C2.62939 71.751 0.256958 69.3785 0.256958 66.4624V5.53854C0.256958 2.62243 2.62939 0.249998 5.5455 0.249998H66.4694C69.3855 0.249998 71.7579 2.62243 71.7579 5.53854V66.4624C71.7579 69.3785 69.3855 71.751 66.4694 71.751Z" fill="white"/>
<path d="M5.54549 0.5C2.76723 0.5 0.506958 2.76028 0.506958 5.53854V66.4624C0.506958 69.2407 2.76723 71.501 5.54549 71.501H66.4694C69.2477 71.501 71.5079 69.2407 71.5079 66.4624V5.53854C71.5079 2.76028 69.2477 0.5 66.4694 0.5H5.54549ZM5.54549 0H66.4694C69.5282 0 72.0079 2.47969 72.0079 5.53854V66.4624C72.0079 69.5213 69.5282 72.001 66.4694 72.001H5.54549C2.48665 72.001 0.00695801 69.5213 0.00695801 66.4624V5.53854C0.00695801 2.47969 2.48665 0 5.54549 0Z" fill="#E7E8E8"/>
<path d="M41.817 51.449C41.597 51.0803 41.3787 50.7107 41.162 50.34C40.0697 48.3396 38.7885 46.4484 37.336 44.692C36.3857 43.572 35.1256 42.7579 33.714 42.352C32.4244 42.0194 31.0967 41.857 29.765 41.869C28.47 41.844 27.141 41.849 25.965 41.854C25.3759 41.9187 24.7965 42.0529 24.239 42.254C24.081 42.3 23.894 42.354 23.712 42.407C23.7884 42.1185 23.7545 41.8119 23.617 41.547C23.5186 41.3703 23.3794 41.2197 23.211 41.1077C23.0426 40.9957 22.8499 40.9255 22.649 40.903C22.362 40.854 22.055 40.783 21.649 40.674C21.4573 40.6329 21.2776 40.5485 21.1237 40.4271C20.9698 40.3058 20.8457 40.1508 20.761 39.974C20.7035 39.8175 20.6833 39.6498 20.7021 39.4842C20.7208 39.3186 20.778 39.1597 20.869 39.02L21.115 38.597C21.362 38.173 21.549 37.851 21.715 37.571C22.093 36.919 22.343 36.488 22.929 35.502L21.476 34.639C20.886 35.632 20.634 36.066 20.253 36.723L19.659 37.746L19.413 38.169C19.1887 38.5315 19.0527 38.9417 19.0161 39.3664C18.9794 39.7911 19.0431 40.2184 19.202 40.614C19.3838 41.0316 19.6597 41.4015 20.0083 41.6946C20.3568 41.9878 20.7684 42.1964 21.211 42.304C21.457 42.371 21.673 42.425 21.876 42.471C21.837 42.571 21.797 42.671 21.753 42.763C21.6349 42.9991 21.5734 43.2595 21.5734 43.5235C21.5734 43.7875 21.6349 44.0479 21.753 44.284C21.6542 44.4866 21.5997 44.7078 21.593 44.933C21.5863 45.1583 21.6276 45.3824 21.7142 45.5904C21.8007 45.7985 21.9305 45.9858 22.0949 46.1398C22.2594 46.2939 22.4547 46.4112 22.668 46.484L22.713 46.507C22.713 46.523 22.706 46.542 22.702 46.562C22.678 46.669 22.358 47.962 22.33 48.071L23.969 48.482C23.969 48.469 24.328 47.038 24.353 46.923C24.4825 46.5433 24.4593 46.1282 24.2884 45.7652C24.1175 45.4023 23.8122 45.12 23.437 44.978C23.388 44.953 23.35 44.932 23.32 44.914C23.332 44.882 23.348 44.842 23.37 44.793C23.4555 44.6073 23.4969 44.4044 23.491 44.2C23.807 44.134 24.204 44.019 24.716 43.868C25.1276 43.7347 25.5466 43.6255 25.971 43.541C27.135 43.541 28.454 43.531 29.729 43.556C30.9141 43.5432 32.0959 43.6837 33.245 43.974C34.3442 44.2934 35.3245 44.9304 36.063 45.805C37.4426 47.4821 38.6607 49.2858 39.701 51.192C39.921 51.566 40.14 51.939 40.362 52.311C40.597 52.704 41.762 54.771 41.777 54.792L43.248 53.96C43.204 53.878 42.062 51.858 41.817 51.449Z" fill="#6095CF"/>
<path d="M34.574 56.205C34.327 55.634 33.45 53.832 33.095 53.25C32.877 52.8576 32.5732 52.5195 32.2063 52.261C31.8394 52.0025 31.4188 51.8302 30.976 51.757C30.415 51.657 29.831 51.584 29.266 51.51C28.905 51.463 28.548 51.416 28.193 51.365L27.956 51.331C27.87 51.319 27.447 51.268 27.108 51.231C26.808 51.195 26.523 51.161 26.447 51.151L26.675 49.476C26.748 49.486 27.018 49.518 27.309 49.553C27.782 49.609 28.1 49.648 28.198 49.662L28.436 49.696C28.784 49.747 29.136 49.796 29.48 49.837C30.067 49.914 30.668 49.992 31.264 50.095C31.9436 50.2113 32.5893 50.4759 33.1553 50.8697C33.7213 51.2636 34.1937 51.7771 34.539 52.374C34.939 53.033 35.849 54.899 36.125 55.537L34.574 56.205Z" fill="#6095CF"/>
<path d="M50.722 55.16C49.3956 53.07 48.2013 50.8991 47.1459 48.66C46.6656 47.6136 46.416 46.4761 46.4141 45.3247C46.4122 44.1733 46.658 43.035 47.135 41.987C47.6651 40.7854 48.2572 39.6122 48.9089 38.472C50.6349 35.7045 51.4508 32.4659 51.2419 29.211C51.0991 27.3251 50.5017 25.5018 49.5009 23.897C46.1799 18.677 39.3559 16.678 33.5289 18.297C31.4588 18.9002 29.541 19.9374 27.9029 21.3396C26.2649 22.7418 24.9443 24.4767 24.0289 26.429C23.291 27.9165 23.0069 29.5882 23.2119 31.236L21.5349 31.449C21.2872 29.4776 21.6249 27.4769 22.506 25.696C23.6188 23.3601 25.2488 21.3081 27.2725 19.6957C29.2962 18.0834 31.6604 16.9529 34.1859 16.39C37.1602 15.7266 40.2617 15.9213 43.1296 16.9516C45.9975 17.982 48.5139 19.8055 50.386 22.21C50.572 22.466 50.75 22.7277 50.92 22.995C52.0671 24.8275 52.7533 26.9105 52.92 29.066C53.1633 32.6641 52.2722 36.2479 50.372 39.313C49.7524 40.4018 49.1896 41.522 48.6859 42.669C48.3066 43.5075 48.112 44.4178 48.1155 45.3382C48.1189 46.2585 48.3203 47.1673 48.7059 48.003C49.7301 50.1646 50.8866 52.2609 52.1689 54.28L50.722 55.16Z" fill="#6095CF"/>
<path d="M40.691 42.859C39.974 42.8565 39.2807 42.6016 38.7329 42.139C38.3881 41.856 38.1105 41.4998 37.9203 41.0963C37.73 40.6928 37.6319 40.2521 37.6329 39.806L39.3229 39.82C39.3237 40.0163 39.368 40.21 39.4527 40.3871C39.5375 40.5642 39.6605 40.7203 39.8129 40.844C39.9645 40.9732 40.1429 41.0672 40.3352 41.1191C40.5275 41.1709 40.7289 41.1795 40.9249 41.144C41.2106 41.0937 41.4763 40.9637 41.6914 40.7692C41.9065 40.5746 42.0623 40.3232 42.1409 40.044C42.4193 39.342 42.8406 38.7056 43.3779 38.175C43.7471 37.8244 44.0698 37.4278 44.338 36.995C44.5751 36.5964 44.7026 36.1422 44.7076 35.6785C44.7126 35.2147 44.5949 34.7578 44.3665 34.3542C44.1381 33.9506 43.807 33.6145 43.4069 33.38C43.0068 33.1455 42.5517 33.021 42.088 33.019H42.0599C41.5925 33.0166 41.134 33.1468 40.7376 33.3947C40.3413 33.6425 40.0234 33.9977 39.821 34.419L38.2699 33.747C38.6025 33.0223 39.1368 32.4089 39.809 31.98C40.4811 31.5512 41.2626 31.3252 42.0599 31.329H42.1069C42.8659 31.3338 43.6103 31.5383 44.2651 31.9221C44.92 32.3059 45.4622 32.8554 45.8373 33.5153C46.2123 34.1752 46.407 34.9222 46.4017 35.6812C46.3963 36.4402 46.1912 37.1844 45.807 37.839C45.4667 38.4002 45.0542 38.9143 44.5799 39.368C44.2051 39.7369 43.9109 40.1795 43.716 40.668C43.5327 41.2131 43.2063 41.699 42.7709 42.0748C42.3354 42.4506 41.807 42.7024 41.2409 42.804C41.0597 42.8393 40.8756 42.8577 40.691 42.859V42.859Z" fill="#6095CF"/>
</g>
<defs>
<clipPath id="clip0_2_295">
<rect width="72.001" height="72.001" fill="white" transform="translate(0.00695801)"/>
</clipPath>
</defs>
</svg>
