<svg width="73" height="72" viewBox="0 0 73 72" fill="none" xmlns="http://www.w3.org/2000/svg">
<g clip-path="url(#clip0_2_200)">
<path d="M66.4644 71.751H5.54054C2.62443 71.751 0.251999 69.3785 0.251999 66.4624V5.53854C0.251999 2.62243 2.62443 0.249998 5.54054 0.249998H66.4644C69.3805 0.249998 71.753 2.62243 71.753 5.53854V66.4624C71.753 69.3785 69.3805 71.751 66.4644 71.751Z" fill="white"/>
<path d="M5.54053 0.5C2.76228 0.5 0.501999 2.76028 0.501999 5.53854V66.4624C0.501999 69.2407 2.76228 71.501 5.54053 71.501H66.4644C69.2427 71.501 71.503 69.2407 71.503 66.4624V5.53854C71.503 2.76028 69.2427 0.5 66.4644 0.5H5.54053ZM5.54053 0H66.4644C69.5233 0 72.003 2.47969 72.003 5.53854V66.4624C72.003 69.5213 69.5233 72.001 66.4644 72.001H5.54053C2.48169 72.001 0.0019989 69.5213 0.0019989 66.4624V5.53854C0.0019989 2.47969 2.48169 0 5.54053 0Z" fill="#E7E8E8"/>
<path d="M25.625 24.929C24.6954 24.929 23.7867 24.6533 23.0138 24.1369C22.2409 23.6205 21.6385 22.8864 21.2828 22.0276C20.9271 21.1688 20.834 20.2238 21.0153 19.3121C21.1967 18.4004 21.6443 17.5629 22.3016 16.9056C22.9589 16.2483 23.7964 15.8007 24.7081 15.6193C25.6198 15.438 26.5648 15.531 27.4236 15.8868C28.2824 16.2425 29.0165 16.8449 29.5329 17.6178C30.0494 18.3907 30.325 19.2994 30.325 20.229C30.3226 21.4748 29.8267 22.6689 28.9458 23.5498C28.0649 24.4307 26.8708 24.9266 25.625 24.929V24.929ZM25.625 17.067C25.0004 17.067 24.3899 17.2522 23.8705 17.5992C23.3512 17.9462 22.9464 18.4394 22.7074 19.0165C22.4684 19.5935 22.4058 20.2285 22.5277 20.8411C22.6495 21.4537 22.9503 22.0164 23.392 22.458C23.8336 22.8997 24.3963 23.2005 25.0089 23.3223C25.6215 23.4442 26.2565 23.3816 26.8335 23.1426C27.4106 22.9036 27.9038 22.4988 28.2508 21.9795C28.5978 21.4602 28.783 20.8496 28.783 20.225C28.782 19.3878 28.4489 18.5853 27.8568 17.9935C27.2648 17.4016 26.4621 17.0688 25.625 17.068V17.067Z" fill="#6095CF"/>
<path d="M45.5662 46.7961L44.579 48.218L48.9664 51.2639L49.9535 49.842L45.5662 46.7961Z" fill="#6095CF"/>
<path d="M46.2345 42.215L46.186 43.946L50.749 44.0738L50.7975 42.3428L46.2345 42.215Z" fill="#6095CF"/>
<path d="M48.3112 35.7237L44.584 38.356L45.5832 39.7707L49.3104 37.1384L48.3112 35.7237Z" fill="#6095CF"/>
<path d="M27.342 40.971L33.023 35.327L28.784 31.088C28.2204 30.5265 27.8363 29.8102 27.6804 29.0301C27.5244 28.25 27.6037 27.4411 27.9082 26.7061C28.2126 25.9711 28.7285 25.3431 29.3904 24.9017C30.0523 24.4604 30.8304 24.2255 31.626 24.227H43.965V34.891C43.9644 35.4297 43.7947 35.9546 43.4798 36.3917C43.1649 36.8287 42.7208 37.1559 42.21 37.327C42.0302 37.6433 41.8081 37.9336 41.55 38.19L34.195 45.497V52.366C34.195 53.4322 33.7715 54.4547 33.0176 55.2086C32.2637 55.9625 31.2412 56.386 30.175 56.386C29.1088 56.386 28.0863 55.9625 27.3324 55.2086C26.5785 54.4547 26.155 53.4322 26.155 52.366V43.824C26.1576 42.7534 26.5845 41.7275 27.342 40.971V40.971ZM27.495 52.365C27.495 53.0758 27.7773 53.7575 28.2799 54.2601C28.7825 54.7627 29.4642 55.045 30.175 55.045C30.8858 55.045 31.5674 54.7627 32.07 54.2601C32.5726 53.7575 32.855 53.0758 32.855 52.365V45.216C32.8553 45.1275 32.8732 45.04 32.9075 44.9585C32.9418 44.877 32.992 44.8031 33.055 44.741L40.537 37.308C40.0381 37.1296 39.6065 36.8015 39.3011 36.3685C38.9958 35.9355 38.8316 35.4188 38.831 34.889V31.658L36.479 29.306H33.694V27.966H40.17V31.376V34.885C40.17 35.2108 40.2994 35.5233 40.5298 35.7537C40.7602 35.9841 41.0727 36.1135 41.3985 36.1135C41.7243 36.1135 42.0368 35.9841 42.2672 35.7537C42.4976 35.5233 42.627 35.2108 42.627 34.885V25.566H31.893C31.8547 25.5693 31.8162 25.5693 31.778 25.566C31.6269 25.5577 31.4754 25.562 31.325 25.579C30.7214 25.6448 30.1586 25.9159 29.731 26.347C29.2292 26.85 28.9473 27.5315 28.9473 28.242C28.9473 28.9525 29.2292 29.634 29.731 30.137L34.445 34.851C34.5074 34.9132 34.557 34.9872 34.5908 35.0686C34.6246 35.15 34.642 35.2373 34.642 35.3255C34.642 35.4137 34.6246 35.501 34.5908 35.5824C34.557 35.6638 34.5074 35.7378 34.445 35.8L28.287 41.918C27.7828 42.4221 27.4985 43.1051 27.496 43.818L27.495 52.365ZM38.829 29.765V29.308H38.372L38.829 29.765Z" fill="#6095CF"/>
</g>
<defs>
<clipPath id="clip0_2_200">
<rect width="72.001" height="72.001" fill="white" transform="translate(0.0019989)"/>
</clipPath>
</defs>
</svg>
