<svg width="73" height="72" viewBox="0 0 73 72" fill="none" xmlns="http://www.w3.org/2000/svg">
<g clip-path="url(#clip0_2_216)">
<path d="M66.4654 71.751H5.54153C2.62542 71.751 0.252991 69.3785 0.252991 66.4624V5.53854C0.252991 2.62243 2.62542 0.249998 5.54153 0.249998H66.4654C69.3815 0.249998 71.754 2.62243 71.754 5.53854V66.4624C71.754 69.3785 69.3815 71.751 66.4654 71.751Z" fill="white"/>
<path d="M5.54153 0.5C2.76327 0.5 0.502991 2.76028 0.502991 5.53854V66.4624C0.502991 69.2407 2.76327 71.501 5.54153 71.501H66.4654C69.2437 71.501 71.504 69.2407 71.504 66.4624V5.53854C71.504 2.76028 69.2437 0.5 66.4654 0.5H5.54153ZM5.54153 0H66.4654C69.5243 0 72.004 2.47969 72.004 5.53854V66.4624C72.004 69.5213 69.5243 72.001 66.4654 72.001H5.54153C2.48268 72.001 0.00299072 69.5213 0.00299072 66.4624V5.53854C0.00299072 2.47969 2.48268 0 5.54153 0Z" fill="#E7E8E8"/>
<path d="M41.755 55.29H35.893V52.846C34.9517 52.3338 34.166 51.5771 33.6187 50.6558C33.0714 49.7345 32.7827 48.6826 32.783 47.611V42.306H44.703V47.606C44.6996 48.645 44.4261 49.6653 43.9095 50.5667C43.3928 51.4682 42.6508 52.2198 41.756 52.748L41.755 55.29ZM37.499 53.684H40.149V51.764L40.607 51.546C41.3504 51.19 41.9781 50.6314 42.4179 49.9343C42.8577 49.2373 43.0917 48.4302 43.093 47.606V43.906H34.393V47.606C34.3922 48.4563 34.6404 49.2883 35.1071 49.9992C35.5738 50.71 36.2384 51.2686 37.019 51.606L37.503 51.816L37.499 53.684Z" fill="#6095CF"/>
<path d="M33.991 24.771C33.0247 24.771 32.08 24.4844 31.2765 23.9476C30.473 23.4107 29.8468 22.6476 29.4769 21.7548C29.1071 20.862 29.0104 19.8796 29.1989 18.9318C29.3874 17.984 29.8528 17.1134 30.5361 16.4301C31.2194 15.7467 32.09 15.2814 33.0378 15.0929C33.9856 14.9043 34.968 15.0011 35.8608 15.3709C36.7536 15.7407 37.5167 16.367 38.0536 17.1705C38.5905 17.974 38.877 18.9186 38.877 19.885C38.8757 21.1804 38.3605 22.4224 37.4445 23.3385C36.5285 24.2545 35.2865 24.7697 33.991 24.771V24.771ZM33.991 16.606C33.3425 16.606 32.7085 16.7983 32.1693 17.1586C31.6301 17.5189 31.2098 18.031 30.9616 18.6302C30.7134 19.2293 30.6485 19.8886 30.775 20.5247C30.9015 21.1608 31.2138 21.745 31.6724 22.2036C32.131 22.6622 32.7152 22.9745 33.3513 23.101C33.9874 23.2275 34.6467 23.1626 35.2458 22.9144C35.845 22.6662 36.3571 22.2459 36.7174 21.7067C37.0777 21.1675 37.27 20.5335 37.27 19.885C37.2689 19.0157 36.9232 18.1823 36.3085 17.5676C35.6938 16.9529 34.8603 16.6071 33.991 16.606V16.606Z" fill="#6095CF"/>
<path d="M29.506 56.493H20.006V54.887H27.906V42.238C27.907 41.3687 28.2529 40.5353 28.8676 39.9206C29.4823 39.3059 30.3157 38.9601 31.185 38.959H38.573C39.8612 38.9574 41.0962 38.445 42.0071 37.5341C42.918 36.6232 43.4304 35.3882 43.432 34.1V25.106C43.432 24.6623 43.2557 24.2368 42.942 23.923C42.6282 23.6093 42.2027 23.433 41.759 23.433C41.3153 23.433 40.8898 23.6093 40.576 23.923C40.2623 24.2368 40.086 24.6623 40.086 25.106V32.869C40.0849 33.7383 39.7391 34.5717 39.1244 35.1864C38.5097 35.8011 37.6763 36.1469 36.807 36.148H29.707C28.5556 36.1491 27.4518 36.6068 26.6375 37.4209C25.8233 38.2349 25.3653 39.3387 25.364 40.49V53.95H23.758V40.49C23.7596 38.9127 24.3869 37.4005 25.5022 36.2852C26.6175 35.1699 28.1297 34.5426 29.707 34.541H36.807C37.2505 34.5405 37.6758 34.364 37.9894 34.0504C38.303 33.7368 38.4795 33.3115 38.48 32.868V25.105C38.48 24.2352 38.8255 23.4011 39.4405 22.7861C40.0556 22.171 40.8897 21.8255 41.7595 21.8255C42.6293 21.8255 43.4634 22.171 44.0784 22.7861C44.6935 23.4011 45.039 24.2352 45.039 25.105V34.099C45.0371 35.8132 44.3554 37.4566 43.1434 38.6687C41.9315 39.8809 40.2881 40.5629 38.574 40.565H31.186C30.7424 40.5655 30.3172 40.742 30.0036 41.0556C29.69 41.3692 29.5135 41.7944 29.513 42.238L29.506 56.493Z" fill="#6095CF"/>
<path d="M47.0109 43.0558L46.095 44.375L50.1644 47.2002L51.0803 45.8809L47.0109 43.0558Z" fill="#6095CF"/>
<path d="M47.631 38.807L47.586 40.413L51.819 40.5315L51.864 38.9255L47.631 38.807Z" fill="#6095CF"/>
<path d="M38.75 44.927L38.806 45.027C38.9236 45.2278 39.0514 45.4224 39.189 45.61C39.305 45.774 39.43 45.941 39.552 46.104V46.11C40.0672 46.6547 40.4258 47.3284 40.59 48.06C40.5887 48.5489 40.3939 49.0174 40.0481 49.3631C39.7024 49.7089 39.2339 49.9037 38.745 49.905H38.74C38.5398 49.9043 38.3411 49.8705 38.152 49.805C37.7867 49.6815 37.4694 49.4465 37.2448 49.133C37.0201 48.8196 36.8996 48.4436 36.9 48.058C37.0651 47.3242 37.4254 46.6488 37.943 46.103C38.2125 45.7586 38.4616 45.3986 38.689 45.025L38.75 44.927Z" fill="#6095CF"/>
<path d="M49.5576 32.7851L46.1 35.227L47.0265 36.5388L50.4841 34.0969L49.5576 32.7851Z" fill="#6095CF"/>
</g>
<defs>
<clipPath id="clip0_2_216">
<rect width="72.001" height="72.001" fill="white" transform="translate(0.00299072)"/>
</clipPath>
</defs>
</svg>
