<svg width="72" height="72" viewBox="0 0 72 72" fill="none" xmlns="http://www.w3.org/2000/svg">
<path d="M66.4624 71.751H5.53854C2.62243 71.751 0.25 69.3785 0.25 66.4624V5.53854C0.25 2.62243 2.62243 0.25 5.53854 0.25H66.4624C69.3785 0.25 71.751 2.62243 71.751 5.53854V66.4624C71.751 69.3785 69.3785 71.751 66.4624 71.751Z" fill="white"/>
<path d="M5.53854 0.5C2.76028 0.5 0.5 2.76028 0.5 5.53854V66.4624C0.5 69.2407 2.76028 71.501 5.53854 71.501H66.4624C69.2407 71.501 71.501 69.2407 71.501 66.4624V5.53854C71.501 2.76028 69.2407 0.5 66.4624 0.5H5.53854ZM5.53854 0H66.4624C69.5213 0 72.001 2.47969 72.001 5.53854V66.4624C72.001 69.5213 69.5213 72.001 66.4624 72.001H5.53854C2.47969 72.001 0 69.5213 0 66.4624V5.53854C0 2.47969 2.47969 0 5.53854 0Z" fill="#E7E8E8"/>
<path d="M22.56 49.061C23.2051 49.061 23.728 48.5381 23.728 47.893C23.728 47.2479 23.2051 46.725 22.56 46.725C21.9149 46.725 21.392 47.2479 21.392 47.893C21.392 48.5381 21.9149 49.061 22.56 49.061Z" fill="#6095CF"/>
<path d="M27.115 53.525C28.367 53.525 29.382 52.51 29.382 51.258C29.382 50.006 28.367 48.991 27.115 48.991C25.863 48.991 24.848 50.006 24.848 51.258C24.848 52.51 25.863 53.525 27.115 53.525Z" fill="#6095CF"/>
<path d="M27.824 46.851C28.8529 46.851 29.687 46.0169 29.687 44.988C29.687 43.9591 28.8529 43.125 27.824 43.125C26.7951 43.125 25.961 43.9591 25.961 44.988C25.961 46.0169 26.7951 46.851 27.824 46.851Z" fill="#6095CF"/>
<path d="M45.969 56.056H44.352V30.361L52.985 23.122L54.024 24.361L45.969 31.115V56.056Z" fill="#5C93D5"/>
<path d="M26.748 56.351H26.048C24.3801 56.3511 22.7534 55.8331 21.3926 54.8685C20.0319 53.904 19.0045 52.5405 18.4523 50.9667C17.9001 49.3929 17.8505 47.6863 18.3103 46.0831C18.7701 44.4798 19.7166 43.059 21.019 42.017L31.907 33.306C33.6296 31.9316 35.7673 31.1818 37.971 31.179H39.46V15H41.077V32.8H37.972C36.1353 32.8024 34.3537 33.4274 32.918 34.573L22.03 43.284C20.989 44.1166 20.2324 45.2521 19.8648 46.5334C19.4973 47.8147 19.5369 49.1786 19.9782 50.4364C20.4195 51.6943 21.2407 52.7839 22.3283 53.5547C23.4158 54.3255 24.716 54.7393 26.049 54.739H26.749C28.4543 54.7372 30.0892 54.0589 31.2951 52.8531C32.5009 51.6472 33.1791 50.0123 33.181 48.307V40.57C33.181 39.1888 33.7297 37.8641 34.7064 36.8874C35.6831 35.9107 37.0077 35.362 38.389 35.362H41.079V56.051H39.462V36.983H38.388C37.4365 36.9833 36.5239 37.3612 35.8508 38.0337C35.1777 38.7063 34.7991 39.6185 34.798 40.57V48.298C34.7967 50.4329 33.9482 52.4799 32.4389 53.9898C30.9296 55.4997 28.8829 56.3489 26.748 56.351V56.351Z" fill="#6095CF"/>
<path d="M43.724 27.821V15H45.341V24.5L50.225 20.679L51.225 21.952L43.724 27.821Z" fill="#5C93D5"/>
</svg>
