<svg width="73" height="72" viewBox="0 0 73 72" fill="none" xmlns="http://www.w3.org/2000/svg">
<g clip-path="url(#clip0_2_273)">
<path d="M66.4684 71.751H5.54452C2.62841 71.751 0.255981 69.3785 0.255981 66.4624V5.53854C0.255981 2.62243 2.62841 0.249998 5.54452 0.249998H66.4684C69.3845 0.249998 71.757 2.62243 71.757 5.53854V66.4624C71.757 69.3785 69.3845 71.751 66.4684 71.751Z" fill="white"/>
<path d="M5.54452 0.5C2.76626 0.5 0.505981 2.76028 0.505981 5.53854V66.4624C0.505981 69.2407 2.76626 71.501 5.54452 71.501H66.4684C69.2467 71.501 71.507 69.2407 71.507 66.4624V5.53854C71.507 2.76028 69.2467 0.5 66.4684 0.5H5.54452ZM5.54452 0H66.4684C69.5273 0 72.007 2.47969 72.007 5.53854V66.4624C72.007 69.5213 69.5273 72.001 66.4684 72.001H5.54452C2.48567 72.001 0.00598145 69.5213 0.00598145 66.4624V5.53854C0.00598145 2.47969 2.48567 0 5.54452 0Z" fill="#E7E8E8"/>
<path d="M21.354 41.077C20.6758 41.077 20.0128 40.8759 19.4489 40.4991C18.885 40.1223 18.4455 39.5868 18.186 38.9602C17.9265 38.3336 17.8586 37.6442 17.9909 36.979C18.1232 36.3139 18.4498 35.7029 18.9293 35.2233C19.4089 34.7438 20.0199 34.4172 20.685 34.2849C21.3502 34.1526 22.0396 34.2205 22.6662 34.48C23.2928 34.7395 23.8283 35.1791 24.2051 35.743C24.5819 36.3068 24.783 36.9698 24.783 37.648C24.7819 38.5571 24.4203 39.4287 23.7775 40.0715C23.1346 40.7143 22.2631 41.0759 21.354 41.077ZM21.354 36.219C21.0714 36.219 20.7951 36.3028 20.5601 36.4598C20.3251 36.6168 20.1419 36.84 20.0338 37.1011C19.9256 37.3623 19.8973 37.6496 19.9525 37.9268C20.0076 38.204 20.1437 38.4586 20.3435 38.6584C20.5434 38.8583 20.798 38.9944 21.0752 39.0495C21.3524 39.1047 21.6397 39.0764 21.9008 38.9682C22.162 38.86 22.3851 38.6769 22.5422 38.4419C22.6992 38.2069 22.783 37.9306 22.783 37.648C22.7827 37.2691 22.6321 36.9058 22.3642 36.6378C22.0962 36.3699 21.7329 36.2193 21.354 36.219V36.219Z" fill="#6095CF" stroke="white" stroke-width="0.4"/>
<path d="M39.19 55.619H37.19V39.459C37.1697 37.2064 37.7414 34.9881 38.848 33.026C39.7467 31.4433 40.1806 29.6392 40.1 27.821C40.1001 27.1414 39.9309 26.4725 39.6077 25.8747C39.2845 25.2769 38.8175 24.769 38.2488 24.3969C37.6801 24.0249 37.0277 23.8003 36.3505 23.7436C35.6733 23.6868 34.9927 23.7997 34.37 24.072C34.306 24.1 34.239 24.133 34.178 24.165C33.8097 24.3511 33.4708 24.5904 33.172 24.875C32.7743 25.2566 32.4579 25.7148 32.242 26.2219C32.0262 26.7291 31.9153 27.2748 31.916 27.826C31.8361 29.6422 32.2689 31.4442 33.165 33.026C34.2708 34.9892 34.8431 37.2078 34.825 39.461V55.619H32.825V39.459C32.8427 37.519 32.3436 35.6093 31.379 33.926C30.3414 32.0652 29.8349 29.955 29.915 27.826C29.9143 27.0057 30.0798 26.1938 30.4015 25.4393C30.7233 24.6848 31.1946 24.0033 31.787 23.436C32.2244 23.018 32.7207 22.6662 33.26 22.392C33.36 22.341 33.46 22.292 33.56 22.245C34.4871 21.8391 35.5007 21.6706 36.5093 21.7547C37.5178 21.8389 38.4895 22.1729 39.3366 22.7267C40.1837 23.2805 40.8794 24.0366 41.361 24.9267C41.8426 25.8169 42.0949 26.8129 42.095 27.825C42.1762 29.9543 41.6693 32.0648 40.63 33.925C39.6624 35.6069 39.1638 37.5177 39.186 39.458L39.19 55.619Z" fill="#6095CF" stroke="white" stroke-width="0.4"/>
<path d="M50.132 41.389C49.4075 41.389 48.6993 41.1742 48.0969 40.7717C47.4946 40.3692 47.0251 39.7971 46.7478 39.1278C46.4706 38.4585 46.398 37.722 46.5394 37.0114C46.6807 36.3009 47.0296 35.6482 47.5419 35.1359C48.0541 34.6236 48.7068 34.2748 49.4174 34.1334C50.1279 33.9921 50.8644 34.0646 51.5338 34.3419C52.2031 34.6191 52.7752 35.0886 53.1777 35.691C53.5802 36.2934 53.795 37.0016 53.795 37.726C53.7939 38.6972 53.4077 39.6283 52.721 40.315C52.0342 41.0017 51.1031 41.388 50.132 41.389V41.389ZM50.132 36.063C49.8031 36.063 49.4816 36.1606 49.2081 36.3433C48.9346 36.526 48.7214 36.7858 48.5956 37.0896C48.4697 37.3935 48.4368 37.7279 48.5009 38.0505C48.5651 38.3731 48.7235 38.6694 48.9561 38.9019C49.1886 39.1345 49.4849 39.2929 49.8075 39.3571C50.1301 39.4212 50.4645 39.3883 50.7684 39.2624C51.0723 39.1366 51.332 38.9234 51.5147 38.65C51.6975 38.3765 51.795 38.0549 51.795 37.726C51.7945 37.2851 51.6191 36.8624 51.3073 36.5507C50.9956 36.2389 50.5729 36.0636 50.132 36.063V36.063Z" fill="#6095CF" stroke="white" stroke-width="0.4"/>
<path d="M40.862 21.473C41.062 21.634 41.306 21.845 41.655 22.166C41.406 21.918 41.1412 21.6865 40.862 21.473Z" fill="#6095CF" stroke="white" stroke-width="0.4"/>
<path d="M15.395 36.674C13.9363 34.4833 13.1672 31.9059 13.187 29.274C13.1431 25.9718 14.4106 22.7869 16.7115 20.4178C19.0124 18.0487 22.1589 16.6887 25.461 16.636C28.4314 16.6447 31.2937 17.7517 33.497 19.744L32.161 21.233C30.3251 19.5691 27.9387 18.643 25.461 18.633C22.6892 18.6853 20.0512 19.8345 18.1254 21.8286C16.1995 23.8227 15.1428 26.4991 15.187 29.271C15.1683 31.503 15.8182 33.6895 17.053 35.549L15.395 36.674Z" fill="#6095CF" stroke="white" stroke-width="0.4"/>
<path d="M56.642 36.652L54.98 35.539C56.2062 33.6833 56.8513 31.5042 56.833 29.28C56.8771 26.5081 55.8205 23.8317 53.8946 21.8376C51.9687 19.8435 49.3308 18.6943 46.559 18.642C44.084 18.6505 41.6995 19.5737 39.864 21.234L38.529 19.745C40.7317 17.7567 43.5916 16.6526 46.559 16.645C49.8613 16.6974 53.008 18.0573 55.3091 20.4264C57.6102 22.7956 58.8778 25.9806 58.834 29.283C58.8521 31.9026 58.0889 34.4682 56.642 36.652V36.652Z" fill="#6095CF" stroke="white" stroke-width="0.4"/>
<path d="M29.931 55.623V53.068C29.931 51.556 29.931 49.541 29.926 47.525L29.92 39.463C29.9232 39.1032 29.9041 38.7435 29.863 38.386C29.7123 37.2787 29.346 36.2116 28.785 35.245L28.773 35.222C27.5376 32.9561 26.929 30.4016 27.01 27.822C27.0087 26.5788 27.2659 25.3489 27.7651 24.2103C28.2643 23.0717 28.9947 22.0493 29.91 21.208L30.918 20.408C31.3958 20.0852 31.9023 19.807 32.431 19.577L33.005 19.327L33.026 19.345C33.3503 19.2299 33.6809 19.1331 34.016 19.055L34.059 19.045C34.115 19.032 34.171 19.019 34.227 19.007C34.283 18.995 34.367 18.98 34.438 18.967H34.459C34.565 18.948 34.67 18.931 34.777 18.916C35.3223 18.8377 35.8737 18.8109 36.424 18.836H36.466L36.578 18.843L36.641 18.848H36.664C37.6702 18.9306 38.6567 19.1737 39.586 19.568L39.686 19.615C39.938 19.755 40.141 19.864 40.312 19.957C40.6058 20.1081 40.8913 20.275 41.167 20.457C41.28 20.536 41.377 20.608 41.473 20.681C41.701 20.86 41.947 21.075 42.335 21.431L42.365 21.459C43.2061 22.2919 43.8732 23.2835 44.3278 24.3763C44.7824 25.4692 45.0153 26.6414 45.013 27.825C45.0944 30.4045 44.4862 32.959 43.251 35.225L43.242 35.243C42.4784 36.5175 42.0843 37.9794 42.104 39.465V55.626H40.104V39.465C40.0792 37.666 40.5467 35.8945 41.456 34.342L41.462 34.329C42.5613 32.344 43.0976 30.0965 43.013 27.829C43.0146 26.912 42.8346 26.0036 42.4835 25.1565C42.1323 24.3093 41.6169 23.54 40.967 22.893C40.632 22.586 40.416 22.393 40.247 22.263C40.183 22.214 40.106 22.158 40.029 22.103C39.866 21.992 39.677 21.891 39.366 21.723C39.199 21.633 39.004 21.523 38.766 21.396C38.0488 21.0971 37.2893 20.9123 36.515 20.848L36.329 20.836C36.229 20.836 36.123 20.828 36.015 20.828C35.6971 20.8289 35.3796 20.8523 35.065 20.898C34.981 20.91 34.899 20.923 34.819 20.938H34.799L34.639 20.968L34.52 20.995L34.474 21.005C34.0513 21.103 33.6385 21.2399 33.241 21.414L32.985 21.527C32.704 21.6616 32.4318 21.8139 32.17 21.983L32.049 22.065C31.1122 22.7053 30.3459 23.5647 29.8168 24.5685C29.2876 25.5724 29.0117 26.6903 29.013 27.825C28.9285 30.0925 29.4648 32.34 30.564 34.325L30.573 34.343C31.2407 35.5151 31.6744 36.8056 31.85 38.143C31.9012 38.5804 31.9252 39.0206 31.922 39.461C31.922 44.901 31.933 55.328 31.937 55.622L29.931 55.623Z" fill="#6095CF" stroke="white" stroke-width="0.4"/>
</g>
<defs>
<clipPath id="clip0_2_273">
<rect width="72.001" height="72.001" fill="white" transform="translate(0.00598145)"/>
</clipPath>
</defs>
</svg>
