<svg width="73" height="72" viewBox="0 0 73 72" fill="none" xmlns="http://www.w3.org/2000/svg">
<g clip-path="url(#clip0_2_65)">
<path d="M66.4664 71.751H5.54254C2.62643 71.751 0.253998 69.3785 0.253998 66.4624V5.53854C0.253998 2.62243 2.62643 0.25 5.54254 0.25H66.4664C69.3825 0.25 71.755 2.62243 71.755 5.53854V66.4624C71.755 69.3785 69.3825 71.751 66.4664 71.751Z" fill="white"/>
<path d="M5.54253 0.5C2.76427 0.5 0.503998 2.76028 0.503998 5.53854V66.4624C0.503998 69.2407 2.76427 71.501 5.54253 71.501H66.4664C69.2447 71.501 71.505 69.2407 71.505 66.4624V5.53854C71.505 2.76028 69.2447 0.5 66.4664 0.5H5.54253ZM5.54253 0H66.4664C69.5253 0 72.005 2.47969 72.005 5.53854V66.4624C72.005 69.5213 69.5253 72.001 66.4664 72.001H5.54253C2.48369 72.001 0.0039978 69.5213 0.0039978 66.4624V5.53854C0.0039978 2.47969 2.48369 0 5.54253 0Z" fill="#E7E8E8"/>
<path d="M34.526 36.3789C34.0573 36.7319 33.5425 37.0192 32.996 37.2329C32.9105 37.2673 32.8423 37.3342 32.8061 37.4189C32.7699 37.5037 32.7688 37.5993 32.8031 37.6848C32.8375 37.7703 32.9044 37.8388 32.9892 37.875C33.0739 37.9112 33.1695 37.9123 33.2551 37.8779C33.8599 37.6404 34.4296 37.3215 34.9482 36.9299C34.9844 36.9022 35.0149 36.8676 35.0378 36.8281C35.0606 36.7886 35.0754 36.7452 35.0815 36.6999C35.0875 36.6547 35.0847 36.6088 35.0729 36.5647C35.0612 36.5206 35.0408 36.4791 35.0131 36.4429C34.9854 36.4066 34.9508 36.3761 34.9113 36.3533C34.8718 36.3304 34.8283 36.3156 34.7831 36.3096C34.7379 36.3035 34.692 36.3064 34.6479 36.3181C34.6038 36.3298 34.5623 36.3502 34.526 36.3779V36.3789Z" fill="#6095CF" stroke="#6095CF" stroke-width="0.3"/>
<path d="M27.751 37.6251C27.3107 37.519 26.8878 37.3506 26.495 37.1251C26.4556 37.1019 26.412 37.0866 26.3667 37.0802C26.3214 37.0738 26.2754 37.0764 26.2311 37.0878C26.1868 37.0992 26.1452 37.1191 26.1087 37.1466C26.0721 37.1741 26.0413 37.2085 26.0181 37.2479C25.9948 37.2873 25.9796 37.3311 25.9732 37.3764C25.9668 37.4217 25.9693 37.4678 25.9807 37.5121C25.9922 37.5564 26.0122 37.5979 26.0397 37.6344C26.0672 37.671 26.1016 37.7017 26.141 37.725C26.591 37.9827 27.0757 38.1747 27.5801 38.2951C27.6078 38.3024 27.6364 38.3061 27.6651 38.306C27.7501 38.3066 27.8324 38.2759 27.8963 38.2199C27.9602 38.1638 28.0013 38.0862 28.0117 38.0018C28.0222 37.9175 28.0014 37.8321 27.9531 37.7621C27.9049 37.6921 27.8326 37.6422 27.75 37.622L27.751 37.6251Z" fill="#6095CF" stroke="#6095CF" stroke-width="0.3"/>
<path d="M31.284 37.7108C30.6967 37.8125 30.1011 37.858 29.5051 37.8468C29.4136 37.8472 29.3256 37.8829 29.2597 37.9464C29.1938 38.0099 29.1549 38.0964 29.1511 38.1879C29.1495 38.28 29.1844 38.3691 29.2484 38.4354C29.3123 38.5018 29.3999 38.54 29.492 38.5419H29.68C30.2572 38.5417 30.8333 38.4923 31.4021 38.3939C31.4928 38.3783 31.5736 38.3273 31.6267 38.2521C31.6797 38.1769 31.7007 38.0835 31.685 37.9928C31.6694 37.9021 31.6184 37.8215 31.5432 37.7684C31.468 37.7154 31.3747 37.6942 31.284 37.7099V37.7108Z" fill="#6095CF" stroke="#6095CF" stroke-width="0.3"/>
<path d="M37.606 36.9301C38.125 37.3216 38.695 37.6405 39.3001 37.8781C39.3412 37.8944 39.3848 37.9028 39.429 37.903C39.51 37.9035 39.5888 37.8758 39.6514 37.8244C39.7141 37.773 39.7567 37.7013 39.772 37.6218C39.7873 37.5422 39.7742 37.4598 39.7352 37.3888C39.6961 37.3179 39.6333 37.2627 39.5579 37.2331C39.0113 37.0196 38.4965 36.7322 38.0279 36.3791C37.9544 36.3273 37.8638 36.3059 37.775 36.3195C37.6861 36.3331 37.606 36.3805 37.5513 36.4518C37.4967 36.5232 37.4718 36.613 37.4817 36.7023C37.4917 36.7916 37.536 36.8736 37.605 36.9311L37.606 36.9301Z" fill="#6095CF" stroke="#6095CF" stroke-width="0.3"/>
<path d="M41.1511 38.3962C41.7202 38.4943 42.2965 38.5438 42.874 38.5441H43.062C43.1076 38.5433 43.1525 38.5333 43.1943 38.5151C43.2361 38.4968 43.2738 38.4708 43.3054 38.4379C43.337 38.4051 43.362 38.3663 43.3786 38.3239C43.3953 38.2815 43.4034 38.2362 43.4026 38.1906C43.4017 38.145 43.3917 38.1001 43.3735 38.0583C43.3553 38.0165 43.3292 37.9788 43.2964 37.9472C43.2635 37.9156 43.2248 37.8906 43.1824 37.874C43.1399 37.8573 43.0946 37.8492 43.0491 37.85C42.453 37.8613 41.8573 37.8154 41.27 37.7131C41.1812 37.7018 41.0915 37.7253 41.0195 37.7785C40.9475 37.8317 40.8989 37.9105 40.8835 37.9987C40.8682 38.0869 40.8874 38.1778 40.9372 38.2521C40.9871 38.3265 41.0637 38.3788 41.1511 38.3981V38.3962Z" fill="#6095CF" stroke="#6095CF" stroke-width="0.3"/>
<path d="M44.8881 38.3108C44.9167 38.3107 44.9453 38.307 44.973 38.2998C45.4774 38.1793 45.9619 37.9875 46.412 37.73C46.4915 37.6832 46.5492 37.6067 46.5724 37.5174C46.5955 37.428 46.5823 37.333 46.5355 37.2535C46.4887 37.1739 46.4122 37.1162 46.3229 37.0931C46.2335 37.0699 46.1385 37.0831 46.059 37.1299C45.6663 37.3558 45.2433 37.5241 44.8029 37.6299C44.7203 37.6502 44.6482 37.7 44.6 37.7701C44.5517 37.8401 44.5309 37.9254 44.5414 38.0098C44.5519 38.0942 44.593 38.1717 44.6569 38.2278C44.7208 38.2839 44.803 38.3146 44.8881 38.314V38.3108Z" fill="#6095CF" stroke="#6095CF" stroke-width="0.3"/>
<path d="M28.539 35.863C28.4463 35.9181 28.3404 35.9472 28.2325 35.9472C28.1246 35.9472 28.0187 35.9181 27.926 35.863C27.8419 35.8253 27.7463 35.8226 27.6602 35.8554C27.5741 35.8882 27.5046 35.954 27.467 36.038C27.4293 36.1221 27.4266 36.2178 27.4594 36.3039C27.4922 36.39 27.5579 36.4594 27.642 36.497C27.8291 36.5887 28.0337 36.6388 28.242 36.644C28.4479 36.6391 28.6501 36.5886 28.834 36.496C28.9177 36.4573 28.9825 36.387 29.0143 36.3005C29.0461 36.2139 29.0422 36.1183 29.0035 36.0346C28.9647 35.9509 28.8943 35.886 28.8078 35.8542C28.7212 35.8224 28.6257 35.8265 28.542 35.8652L28.539 35.863Z" fill="#6095CF" stroke="#6095CF" stroke-width="0.3"/>
<path d="M44.892 35.863C44.7992 35.9181 44.6933 35.9472 44.5855 35.9472C44.4776 35.9472 44.3717 35.9181 44.279 35.863C44.1949 35.8253 44.0993 35.8226 44.0132 35.8554C43.9271 35.8882 43.8576 35.954 43.82 36.038C43.7823 36.1221 43.7796 36.2178 43.8124 36.3039C43.8452 36.39 43.9109 36.4594 43.995 36.497C44.1821 36.5887 44.3867 36.6388 44.595 36.644C44.8009 36.6391 45.0031 36.5886 45.187 36.496C45.2707 36.4573 45.3355 36.387 45.3673 36.3005C45.3991 36.2139 45.3952 36.1183 45.3565 36.0346C45.3177 35.9509 45.2473 35.886 45.1608 35.8542C45.0742 35.8224 44.9787 35.8265 44.895 35.8652L44.892 35.863Z" fill="#6095CF" stroke="#6095CF" stroke-width="0.3"/>
<path d="M27.242 24.335C27.1524 24.3136 27.0579 24.3287 26.9794 24.377C26.901 24.4253 26.8449 24.5028 26.8236 24.5924C26.8022 24.6821 26.8174 24.7765 26.8657 24.855C26.914 24.9335 26.9914 24.9895 27.081 25.0109L34.29 26.736C34.3165 26.7422 34.3438 26.7451 34.371 26.7449C34.4565 26.7455 34.5391 26.7146 34.6031 26.6581C34.6672 26.6016 34.7082 26.5236 34.7182 26.4388C34.7282 26.3539 34.7067 26.2684 34.6575 26.1985C34.6084 26.1286 34.5353 26.0793 34.4521 26.06L27.242 24.335Z" fill="#6095CF" stroke="#6095CF" stroke-width="0.2"/>
<path d="M37.6549 26.7461C37.6821 26.7462 37.7094 26.7432 37.7359 26.737L44.9449 25.0121C44.9898 25.002 45.0322 24.9831 45.0697 24.9565C45.1072 24.9299 45.1391 24.8961 45.1634 24.8572C45.1878 24.8182 45.2041 24.7748 45.2115 24.7295C45.2189 24.6841 45.2173 24.6377 45.2066 24.593C45.196 24.5483 45.1766 24.5061 45.1495 24.469C45.1224 24.4318 45.0882 24.4004 45.0489 24.3766C45.0096 24.3528 44.9657 24.3371 44.9203 24.3303C44.8748 24.3235 44.8286 24.3257 44.784 24.337L37.575 26.0621C37.4918 26.0814 37.4186 26.1307 37.3695 26.2005C37.3204 26.2704 37.2989 26.356 37.3089 26.4408C37.319 26.5256 37.3599 26.6037 37.4239 26.6603C37.488 26.7168 37.5707 26.7477 37.6561 26.747L37.6549 26.7461Z" fill="#6095CF" stroke="#6095CF" stroke-width="0.2"/>
<path d="M16.853 43.283C16.842 43.177 16.834 43.0761 16.824 42.9711C16.464 39.1171 16.937 36.403 17.646 32.354L17.7239 31.91C18.3179 28.123 19.13 26.081 22.137 24.72C22.514 24.55 23.492 24.0411 24.731 23.3981C26.456 22.4981 28.604 21.387 29.926 20.772C30.5089 20.5088 31.0206 20.1103 31.4186 19.6095C31.8165 19.1088 32.0892 18.5204 32.214 17.8931C32.234 17.7931 32.251 17.693 32.262 17.584C32.2671 17.5387 32.2633 17.4928 32.2507 17.449C32.2381 17.4052 32.217 17.3643 32.1885 17.3286C32.1601 17.2929 32.125 17.2633 32.0851 17.2412C32.0452 17.2191 32.0013 17.2052 31.956 17.2001C31.9394 17.1989 31.9226 17.1989 31.9059 17.2001C31.8892 17.2005 31.8725 17.2021 31.856 17.205H31.8409C31.8225 17.2091 31.8045 17.2148 31.787 17.222H31.777C31.7599 17.2297 31.7435 17.2387 31.728 17.249L31.718 17.256C31.7038 17.266 31.6905 17.2771 31.678 17.289L31.665 17.301C31.6549 17.3117 31.6456 17.3231 31.637 17.335L31.622 17.356C31.6154 17.3667 31.6094 17.3777 31.6039 17.389C31.5991 17.3988 31.5948 17.4088 31.5909 17.4191C31.5871 17.4292 31.5838 17.4396 31.581 17.4501C31.5777 17.4622 31.5749 17.4746 31.5729 17.487C31.5729 17.487 31.5729 17.496 31.5729 17.501C31.505 18.0704 31.2908 18.6124 30.9509 19.0742C30.6111 19.536 30.1574 19.9019 29.634 20.136C28.298 20.758 26.144 21.876 24.413 22.775C23.232 23.388 22.213 23.918 21.853 24.081C18.575 25.565 17.66 27.844 17.041 31.791L16.964 32.229C16.226 36.444 15.7379 39.229 16.1639 43.349C16.1639 43.349 16.1639 43.355 16.1639 43.358C16.1688 43.3952 16.1797 43.4313 16.196 43.465L16.204 43.48C16.2216 43.5121 16.2442 43.5411 16.271 43.566L16.283 43.576C16.3128 43.6011 16.3466 43.6211 16.383 43.6351H16.3929C16.4307 43.6493 16.4707 43.6567 16.511 43.657H16.547C16.6366 43.6467 16.7186 43.6018 16.7758 43.532C16.8329 43.4622 16.8606 43.3729 16.853 43.283V43.283Z" fill="#6095CF" stroke="#6095CF" stroke-width="0.7"/>
<path d="M26.391 54.4369L26.414 54.067L26.7491 48.7821C26.7491 48.7731 26.7491 48.765 26.7491 48.756C26.6871 42.871 25.949 41.0021 25.023 38.6361C24.1191 36.4296 23.4439 34.1361 23.008 31.7918C22.9991 31.7471 22.9816 31.7046 22.9562 31.6666C22.9309 31.6286 22.8983 31.5961 22.8604 31.5707C22.8225 31.5453 22.7799 31.5276 22.7352 31.5187C22.6904 31.5097 22.6443 31.5095 22.5995 31.5184C22.5548 31.5273 22.5122 31.5448 22.4742 31.5702C22.4362 31.5955 22.4036 31.6282 22.3782 31.6661C22.3528 31.704 22.3351 31.7466 22.3261 31.7914C22.3172 31.8361 22.3171 31.8821 22.326 31.9269C22.6729 33.7809 23.1662 35.6047 23.8011 37.381C23.8006 37.39 23.8006 37.3991 23.8011 37.4081C23.7597 39.3197 23.3636 41.207 22.633 42.974C22.6 43.049 22.569 43.1179 22.542 43.1739C22.5184 43.2269 22.5083 43.2848 22.5128 43.3426C22.5172 43.4004 22.5361 43.4563 22.5676 43.505C22.5991 43.5537 22.6421 43.5937 22.6931 43.6214C22.744 43.6492 22.8011 43.6638 22.8591 43.6639C22.8888 43.6633 22.9184 43.659 22.9471 43.651L22.967 43.6449C22.991 43.637 23.0142 43.6266 23.0361 43.6139L23.048 43.607C23.0723 43.5912 23.0945 43.5722 23.1141 43.5509L23.127 43.535C23.1443 43.5141 23.1591 43.4912 23.1711 43.4669V43.4591V43.451C23.8153 41.9963 24.2182 40.4462 24.3641 38.8619L24.373 38.8849C25.273 41.1849 25.989 42.9989 26.05 48.7459L25.6921 54.389C25.6921 54.389 25.6921 54.397 25.6921 54.4C25.6913 54.4113 25.6913 54.4226 25.6921 54.4339C25.6914 54.4463 25.6914 54.4587 25.6921 54.471C25.6942 54.4815 25.6968 54.4919 25.7 54.5021C25.7 54.5131 25.706 54.525 25.71 54.536C25.714 54.547 25.7191 54.556 25.7241 54.566C25.7291 54.576 25.734 54.586 25.74 54.596C25.7459 54.6054 25.7522 54.6142 25.759 54.6229C25.7655 54.6316 25.7726 54.6401 25.7801 54.648C25.7877 54.6561 25.7956 54.6637 25.804 54.671L25.83 54.692L25.8591 54.7101L25.888 54.7259L25.92 54.7379L25.9521 54.7479C25.9636 54.7505 25.9752 54.7526 25.987 54.754H26.0101H26.032C26.1211 54.7574 26.2081 54.7264 26.275 54.6673C26.3418 54.6083 26.3834 54.5257 26.391 54.4369Z" fill="#6095CF" stroke="#6095CF" stroke-width="0.7"/>
<path d="M54.511 28.826C54.2647 27.7214 53.7324 26.7009 52.9675 25.8667C52.2027 25.0326 51.232 24.414 50.1528 24.073C47.5153 22.8992 44.9393 21.5918 42.4348 20.156C41.9195 19.9039 41.4721 19.5319 41.1304 19.0711C40.7886 18.6104 40.5626 18.0743 40.471 17.508C40.4713 17.5033 40.4713 17.4986 40.471 17.494C40.471 17.481 40.4709 17.469 40.4629 17.456L40.4529 17.426C40.4529 17.415 40.444 17.404 40.439 17.394L40.4229 17.365L40.4048 17.339C40.3968 17.329 40.3899 17.32 40.3809 17.311L40.3608 17.292C40.3507 17.2827 40.34 17.2741 40.3289 17.266L40.3098 17.254C40.297 17.2459 40.2836 17.2385 40.2698 17.232L40.252 17.225C40.2367 17.2189 40.2209 17.2138 40.2048 17.21H40.1858C40.1702 17.2089 40.1546 17.2089 40.1389 17.21C40.1223 17.2087 40.1055 17.2087 40.0889 17.21C40.0435 17.215 39.9997 17.2289 39.9597 17.2509C39.9198 17.2729 39.8844 17.3026 39.856 17.3383C39.8275 17.374 39.8065 17.4149 39.794 17.4588C39.7814 17.5027 39.7777 17.5486 39.783 17.594C39.794 17.694 39.812 17.801 39.833 17.903C39.9787 18.5166 40.2565 19.0909 40.6472 19.586C41.0379 20.081 41.5321 20.4847 42.095 20.769C44.6411 22.2301 47.2619 23.5569 49.9468 24.744C50.9321 25.046 51.8168 25.6105 52.5059 26.3767C53.195 27.143 53.6627 28.0822 53.8589 29.094C54.4769 32.751 54.2989 31.654 54.3169 31.894C54.3169 31.904 54.3169 31.915 54.3169 31.925L54.4868 32.925C55.1998 37.125 55.5658 39.299 55.2168 42.978C55.2068 43.078 55.199 43.178 55.188 43.29C55.1833 43.3354 55.1874 43.3812 55.2004 43.425C55.2135 43.4687 55.2351 43.5094 55.2639 43.5448C55.2927 43.5802 55.3283 43.6095 55.3684 43.6312C55.4086 43.6529 55.4524 43.6664 55.4978 43.671H55.5339C55.5743 43.6707 55.6141 43.6633 55.6519 43.649H55.6619C55.6983 43.6351 55.7322 43.6151 55.762 43.59L55.773 43.58C55.7998 43.5551 55.8223 43.5261 55.8399 43.494L55.8479 43.479C55.8645 43.4453 55.8753 43.4092 55.8799 43.372C55.8801 43.369 55.8801 43.366 55.8799 43.363C56.2899 39.395 55.9169 37.195 55.1729 32.811L55.0059 31.823C54.9839 31.539 54.858 30.466 54.855 30.483C54.8461 29.9139 54.7294 29.3516 54.511 28.826V28.826Z" fill="#6095CF" stroke="#6095CF" stroke-width="0.7"/>
<path d="M46.1129 54.4538L46.091 54.0998L45.7701 49.0459C45.7701 49.0379 45.7701 49.03 45.7701 49.021C45.8301 43.393 46.532 41.606 47.42 39.343C48.2844 37.2329 48.9301 35.0396 49.347 32.7978C49.3554 32.755 49.3723 32.7145 49.3965 32.6782C49.4207 32.6419 49.4518 32.6107 49.4881 32.5864C49.5243 32.5621 49.565 32.5451 49.6078 32.5366C49.6506 32.528 49.6946 32.5279 49.7375 32.5363C49.7803 32.5448 49.821 32.5617 49.8573 32.5859C49.8936 32.6101 49.9248 32.6412 49.9491 32.6775C49.9734 32.7137 49.9903 32.7545 49.9988 32.7973C50.0074 32.8401 50.0075 32.8842 49.9991 32.927C49.6673 34.6998 49.1958 36.4434 48.589 38.1418C48.589 38.1508 48.589 38.1589 48.589 38.1679C48.6285 39.9961 49.0072 41.8011 49.706 43.4909C49.737 43.5619 49.767 43.6289 49.793 43.6909C49.8289 43.7711 49.8315 43.8623 49.8004 43.9445C49.7693 44.0268 49.707 44.0934 49.627 44.1298C49.584 44.1496 49.5373 44.1599 49.49 44.1599C49.4616 44.1593 49.4334 44.1553 49.406 44.1479L49.387 44.1418C49.364 44.1342 49.3418 44.1244 49.321 44.112L49.31 44.1059C49.2867 44.0911 49.2655 44.0733 49.247 44.0529L49.234 44.0368C49.2175 44.0169 49.2035 43.9951 49.192 43.9719C49.192 43.9719 49.192 43.9718 49.192 43.9648V43.958C48.576 42.567 48.1906 41.085 48.0511 39.57L48.042 39.592C47.179 41.792 46.497 43.5259 46.442 49.0219L46.784 54.4218C46.784 54.4218 46.784 54.4288 46.784 54.4328C46.7855 54.4551 46.7855 54.4777 46.784 54.5C46.784 54.51 46.784 54.52 46.777 54.531C46.77 54.542 46.771 54.552 46.767 54.563C46.763 54.574 46.7581 54.582 46.7541 54.592C46.7501 54.602 46.744 54.6108 46.739 54.6198C46.734 54.6288 46.727 54.638 46.72 54.646C46.7138 54.6544 46.7071 54.6623 46.7 54.6699C46.693 54.6779 46.685 54.6849 46.677 54.6919L46.653 54.7119L46.626 54.729L46.5981 54.7439L46.567 54.7558L46.537 54.7658L46.503 54.7719H46.48H46.459C46.4154 54.7738 46.3718 54.7671 46.3308 54.7522C46.2898 54.7372 46.2521 54.7143 46.22 54.6848C46.1879 54.6552 46.162 54.6196 46.1436 54.58C46.1252 54.5404 46.1147 54.4974 46.1129 54.4538V54.4538Z" fill="#6095CF" stroke="#6095CF" stroke-width="0.7"/>
</g>
<defs>
<clipPath id="clip0_2_65">
<rect width="72.001" height="72.001" fill="white" transform="translate(0.0039978)"/>
</clipPath>
</defs>
</svg>
