<svg width="73" height="72" viewBox="0 0 73 72" fill="none" xmlns="http://www.w3.org/2000/svg">
<g clip-path="url(#clip0_2_46)">
<path d="M66.4654 71.751H5.54153C2.62542 71.751 0.252991 69.3785 0.252991 66.4624V5.53854C0.252991 2.62243 2.62542 0.25 5.54153 0.25H66.4654C69.3815 0.25 71.754 2.62243 71.754 5.53854V66.4624C71.754 69.3785 69.3815 71.751 66.4654 71.751Z" fill="white"/>
<path d="M5.54153 0.5C2.76327 0.5 0.502991 2.76028 0.502991 5.53854V66.4624C0.502991 69.2407 2.76327 71.501 5.54153 71.501H66.4654C69.2437 71.501 71.504 69.2407 71.504 66.4624V5.53854C71.504 2.76028 69.2437 0.5 66.4654 0.5H5.54153ZM5.54153 0H66.4654C69.5243 0 72.004 2.47969 72.004 5.53854V66.4624C72.004 69.5213 69.5243 72.001 66.4654 72.001H5.54153C2.48268 72.001 0.00299072 69.5213 0.00299072 66.4624V5.53854C0.00299072 2.47969 2.48268 0 5.54153 0Z" fill="#E7E8E8"/>
<path d="M36.3299 20.549C36.7126 20.1663 36.7126 19.5458 36.3299 19.163C35.9472 18.7803 35.3267 18.7803 34.944 19.163C34.5612 19.5458 34.5612 20.1663 34.944 20.549C35.3267 20.9317 35.9472 20.9317 36.3299 20.549Z" fill="#6095CF"/>
<path d="M27.798 24.755C28.3392 24.755 28.778 24.3162 28.778 23.775C28.778 23.2338 28.3392 22.795 27.798 22.795C27.2568 22.795 26.818 23.2338 26.818 23.775C26.818 24.3162 27.2568 24.755 27.798 24.755Z" fill="#6095CF"/>
<path d="M32.4109 30.348C32.7936 29.9653 32.7936 29.3448 32.4109 28.962C32.0282 28.5793 31.4077 28.5793 31.025 28.962C30.6423 29.3448 30.6423 29.9653 31.025 30.348C31.4077 30.7307 32.0282 30.7307 32.4109 30.348Z" fill="#6095CF"/>
<path d="M40.4618 22.1907C40.669 21.6906 40.4315 21.1173 39.9315 20.9102C39.4314 20.7031 38.8582 20.9406 38.651 21.4406C38.4439 21.9406 38.6814 22.5139 39.1814 22.721C39.6814 22.9282 40.2547 22.6907 40.4618 22.1907Z" fill="#6095CF"/>
<path d="M32.6228 22.1907C32.83 21.6906 32.5925 21.1173 32.0925 20.9102C31.5924 20.7031 31.0191 20.9406 30.812 21.4406C30.6049 21.9406 30.8424 22.5139 31.3424 22.721C31.8424 22.9282 32.4157 22.6907 32.6228 22.1907Z" fill="#6095CF"/>
<path d="M31.9431 26.6884C32.4699 26.564 32.7961 26.0362 32.6717 25.5095C32.5474 24.9827 32.0195 24.6565 31.4928 24.7808C30.966 24.9052 30.6398 25.433 30.7642 25.9598C30.8885 26.4865 31.4163 26.8128 31.9431 26.6884Z" fill="#6095CF"/>
<path d="M27.798 28.675C28.3392 28.675 28.778 28.2362 28.778 27.695C28.778 27.1538 28.3392 26.715 27.798 26.715C27.2568 26.715 26.818 27.1538 26.818 27.695C26.818 28.2362 27.2568 28.675 27.798 28.675Z" fill="#6095CF"/>
<path d="M35.8621 24.7294C36.3888 24.6051 36.7151 24.0773 36.5907 23.5505C36.4664 23.0237 35.9385 22.6975 35.4118 22.8219C34.885 22.9462 34.5588 23.474 34.6831 24.0008C34.8075 24.5275 35.3353 24.8538 35.8621 24.7294Z" fill="#6095CF"/>
<path d="M37.852 15.004C33.3389 15.0056 29.0102 16.7954 25.8138 19.9817C22.6175 23.1679 20.8138 27.4909 20.798 32.004L20.784 32.261C20.7322 32.782 20.5703 33.2861 20.3091 33.74L16.772 39.607C16.5171 40.0303 16.3793 40.5136 16.3725 41.0076C16.3658 41.5016 16.4903 41.9886 16.7334 42.4187C16.9765 42.8488 17.3294 43.2067 17.7561 43.4557C18.1828 43.7047 18.6679 43.8359 19.162 43.836H20.662V48.704C20.662 49.3081 20.781 49.9062 21.0122 50.4643C21.2434 51.0224 21.5821 51.5296 22.0093 51.9567C22.4364 52.3839 22.9436 52.7227 23.5017 52.9538C24.0598 53.185 24.658 53.304 25.2621 53.304H31.326C31.7123 53.2999 32.097 53.2553 32.474 53.171V56.113H34.4341V52.331C34.6072 52.2238 34.7741 52.1069 34.9341 51.981L38.657 48.823L37.39 47.329L33.666 50.487C33.0131 51.0404 32.1849 51.3441 31.329 51.344H25.265C24.5653 51.3432 23.8946 51.0649 23.3999 50.5702C22.9052 50.0754 22.6268 49.4047 22.626 48.705V41.871H19.168C19.021 41.871 18.8767 41.8319 18.7497 41.7579C18.6228 41.6838 18.5179 41.5773 18.4455 41.4494C18.3732 41.3214 18.3362 41.1766 18.3382 41.0296C18.3403 40.8827 18.3812 40.7389 18.457 40.613L21.994 34.747C22.407 34.0381 22.6622 33.2485 22.7421 32.432L22.7631 32.057C22.7662 28.0532 24.3581 24.2143 27.1892 21.3832C30.0203 18.5521 33.8592 16.9602 37.863 16.957C38.288 16.957 38.707 16.986 39.124 17.021C40.4354 18.2734 41.4369 19.8141 42.0491 21.521C42.1834 21.9227 42.2293 22.3486 42.1839 22.7697C42.1386 23.1908 42.0028 23.5972 41.786 23.961C41.5566 24.3573 41.2454 24.7003 40.8732 24.967C40.5009 25.2338 40.0761 25.4181 39.6271 25.508L39.327 25.568C38.5174 25.7298 37.7589 26.0849 37.116 26.6029C36.473 27.1209 35.9647 27.7866 35.6343 28.5432C35.3039 29.2998 35.1612 30.1251 35.2183 30.9488C35.2753 31.7724 35.5304 32.5701 35.962 33.274L36.612 34.333L37.49 33.454C37.9012 33.0429 38.4251 32.7629 38.9953 32.6495C39.5656 32.536 40.1568 32.5943 40.694 32.8168C41.2312 33.0393 41.6903 33.4162 42.0133 33.8996C42.3363 34.3831 42.5088 34.9515 42.5088 35.533C42.5088 36.1145 42.3363 36.6829 42.0133 37.1664C41.6903 37.6498 41.2312 38.0267 40.694 38.2492C40.1568 38.4717 39.5656 38.53 38.9953 38.4165C38.4251 38.3031 37.9012 38.0231 37.49 37.612L36.105 38.997C36.5582 39.4525 37.0972 39.8138 37.6907 40.0601C38.2842 40.3064 38.9204 40.4328 39.563 40.432C39.7498 40.4318 39.9365 40.4211 40.1221 40.4C40.8613 40.3156 41.5717 40.0648 42.2001 39.6665C42.8284 39.2681 43.3583 38.7326 43.75 38.1C44.2301 37.3304 44.4846 36.4416 44.4846 35.5345C44.4846 34.6275 44.2301 33.7386 43.75 32.969C43.3583 32.3364 42.8284 31.8009 42.2001 31.4025C41.5717 31.0042 40.8613 30.7534 40.1221 30.669C39.1204 30.5516 38.107 30.7483 37.222 31.232C37.0562 30.4064 37.2248 29.5487 37.6909 28.8475C38.1571 28.1462 38.8826 27.6586 39.708 27.492L40.008 27.432C40.7299 27.2876 41.4126 26.9913 42.0111 26.5627C42.6096 26.134 43.11 25.583 43.479 24.946C43.8328 24.3407 44.0537 23.6671 44.1272 22.9698C44.2006 22.2726 44.1249 21.5677 43.905 20.902C43.4942 19.7216 42.9091 18.6092 42.1691 17.602C45.2822 18.5329 48.0125 20.4422 49.9553 23.0468C51.8981 25.6514 52.9501 28.8126 52.9551 32.062C52.9522 35.6914 52.0202 39.2597 50.248 42.427C49.5768 43.5206 49.0833 44.7138 48.786 45.962C46.2228 44.826 43.9906 43.0569 42.2991 40.821L40.749 42.021C42.7308 44.6361 45.3763 46.6733 48.411 47.921C48.3031 48.7356 48.2476 49.5563 48.245 50.378V56.119H50.2051V50.378C50.1445 47.9673 50.7315 45.5846 51.905 43.478C53.8841 39.999 54.9229 36.0645 54.9191 32.062C54.9148 27.5377 53.1151 23.2 49.915 20.0017C46.715 16.8034 42.3764 15.0059 37.852 15.004Z" fill="#6095CF" stroke="white" stroke-width="0.5"/>
</g>
<defs>
<clipPath id="clip0_2_46">
<rect width="72.001" height="72.001" fill="white" transform="translate(0.00299072)"/>
</clipPath>
</defs>
</svg>
