<svg width="73" height="72" viewBox="0 0 73 72" fill="none" xmlns="http://www.w3.org/2000/svg">
<g clip-path="url(#clip0_2_129)">
<path d="M66.4704 71.751H5.54647C2.63036 71.751 0.257935 69.3785 0.257935 66.4624V5.53854C0.257935 2.62243 2.63036 0.25 5.54647 0.25H66.4704C69.3865 0.25 71.7589 2.62243 71.7589 5.53854V66.4624C71.7589 69.3785 69.3865 71.751 66.4704 71.751Z" fill="white"/>
<path d="M5.54647 0.5C2.76821 0.5 0.507935 2.76028 0.507935 5.53854V66.4624C0.507935 69.2407 2.76821 71.501 5.54647 71.501H66.4704C69.2486 71.501 71.5089 69.2407 71.5089 66.4624V5.53854C71.5089 2.76028 69.2486 0.5 66.4704 0.5H5.54647ZM5.54647 0H66.4704C69.5292 0 72.0089 2.47969 72.0089 5.53854V66.4624C72.0089 69.5213 69.5292 72.001 66.4704 72.001H5.54647C2.48763 72.001 0.00793457 69.5213 0.00793457 66.4624V5.53854C0.00793457 2.47969 2.48763 0 5.54647 0Z" fill="#E7E8E8"/>
<path d="M35.0389 21.478H32.1849V22.95H35.0389V21.478Z" fill="#6095CF"/>
<path d="M34.3029 34.073C34.3029 33.998 34.0799 26.506 32.9029 22.418L34.3179 22.011C35.5449 26.28 35.7649 33.718 35.7729 34.032L34.3029 34.073Z" fill="#6095CF"/>
<path d="M50.1929 28.363C46.5849 27.641 42.5749 29.136 40.8499 29.899C40.4271 25.514 39.5264 21.1884 38.1639 16.999L36.7759 17.491C38.4077 22.6076 39.3664 27.9149 39.6279 33.279L33.3769 32.994C32.9915 32.9764 32.6064 33.0372 32.2451 33.1726C31.8838 33.308 31.5536 33.5152 31.2746 33.7818C30.9956 34.0484 30.7736 34.3687 30.6219 34.7235C30.4701 35.0783 30.3919 35.4601 30.3919 35.846V36.793C29.2215 36.5227 27.9929 36.6828 26.9309 37.244C26.4917 37.5374 26.1273 37.9294 25.8668 38.3889C25.6063 38.8484 25.457 39.3625 25.4309 39.89V39.931V47.531C25.4505 48.9889 26.0434 50.3804 27.0812 51.4044C28.1191 52.4284 29.5184 53.0025 30.9764 53.0025C32.4344 53.0025 33.8338 52.4284 34.8716 51.4044C35.9095 50.3804 36.5023 48.9889 36.5219 47.531V40.353C36.5214 40.2959 36.5372 40.2398 36.5675 40.1913C36.5978 40.1429 36.6413 40.1041 36.6928 40.0795C36.7444 40.0549 36.8019 40.0456 36.8586 40.0526C36.9153 40.0596 36.9689 40.0826 37.0129 40.119L37.0689 40.16C37.9057 40.6898 38.7859 41.1478 39.6999 41.529C40.0259 43.229 40.9689 49.904 36.9089 54.829L38.0449 55.766C42.0179 50.948 41.6959 44.84 41.3009 42.141C43.2327 42.8031 45.2589 43.1482 47.3009 43.163C48.0064 43.1636 48.7113 43.1182 49.4109 43.027C50.1844 42.8567 50.9068 42.5063 51.5195 42.0043C52.1322 41.5023 52.6178 40.8629 52.9369 40.138C53.7734 38.5467 54.2387 36.7868 54.2979 34.99C54.4119 31.378 52.8799 28.9 50.1929 28.363ZM52.8189 34.941C52.7089 38.233 51.0189 41.33 49.2129 41.567C45.2587 41.9327 41.2919 41.0151 37.8999 38.95C37.6379 38.7475 37.3243 38.6225 36.9948 38.5891C36.6654 38.5557 36.3331 38.6152 36.0357 38.7609C35.7384 38.9066 35.4877 39.1327 35.3123 39.4136C35.1368 39.6945 35.0435 40.0188 35.0429 40.35V47.525C35.0429 48.6052 34.6138 49.6412 33.85 50.4051C33.0861 51.1689 32.0501 51.598 30.9699 51.598C29.8897 51.598 28.8537 51.1689 28.0899 50.4051C27.326 49.6412 26.8969 48.6052 26.8969 47.525V40.01C26.9068 39.7102 26.9859 39.4167 27.128 39.1525C27.27 38.8883 27.4712 38.6606 27.7159 38.487C28.5558 38.1029 29.5053 38.032 30.3929 38.287V45.853C29.9425 45.9438 29.5056 46.092 29.0929 46.294L29.7759 47.594C30.2562 47.3569 30.7842 47.232 31.3199 47.2289C31.8555 47.2258 32.3849 47.3445 32.8679 47.576L33.6139 46.307C33.0793 45.9932 32.4808 45.8039 31.8629 45.753V35.841C31.863 35.6541 31.9009 35.4692 31.9745 35.2974C32.048 35.1256 32.1556 34.9705 32.2907 34.8414C32.4259 34.7124 32.5858 34.612 32.7608 34.5464C32.9358 34.4809 33.1222 34.4515 33.3089 34.46L39.6789 34.751C39.6789 34.827 39.6789 34.903 39.6839 34.979C39.6935 35.432 39.879 35.8635 40.2012 36.1821C40.5233 36.5007 40.9568 36.6814 41.4099 36.686L46.5829 36.786C46.7123 37.2731 46.7769 37.7751 46.7749 38.279H48.2469C48.2722 37.3043 48.0779 36.3364 47.6784 35.447C47.2789 34.5576 46.6843 33.7695 45.9389 33.141L45.0619 34.324C45.3988 34.6022 45.6891 34.9324 45.9219 35.302L41.4309 35.218H41.4219C41.3529 35.218 41.2866 35.1906 41.2377 35.1419C41.1888 35.0932 41.1612 35.0271 41.1609 34.958C41.1399 33.758 41.0809 32.585 40.9939 31.458C42.1599 30.907 46.3659 29.099 49.9079 29.808C52.7499 30.375 52.8549 33.88 52.8219 34.941H52.8189Z" fill="#6095CF"/>
<path d="M30.1499 24.527C29.8123 22.5287 29.3497 20.5535 28.7649 18.613L27.3589 19.051C27.9212 20.9261 28.3677 22.8341 28.6959 24.764C29.2559 28.216 29.0439 30.578 28.1289 31.083C27.5242 31.3685 26.8858 31.5761 26.2289 31.701C25.7229 31.823 25.1779 31.955 24.6229 32.147C23.9251 32.3814 23.1787 32.432 22.4556 32.294C21.7326 32.156 21.0573 31.8339 20.4949 31.359C19.2799 30.219 18.5869 28.014 18.4899 24.983C18.4476 23.4958 18.5322 22.0078 18.7429 20.535L17.2979 20.299C17.2399 20.656 15.9169 29.07 19.4979 32.431C20.2054 33.1004 21.0956 33.5449 22.0559 33.708C21.7524 34.0118 21.4791 34.3444 21.2399 34.701C19.6699 37.027 19.0009 40.972 19.1959 46.762L20.6669 46.713C20.4839 41.244 21.0669 37.585 22.4599 35.526C22.9482 34.867 23.5661 34.3147 24.2756 33.9032C24.9852 33.4917 25.7714 33.2296 26.5859 33.133C27.3705 32.982 28.1313 32.7264 28.8479 32.373C30.4349 31.492 30.8639 28.922 30.1499 24.527Z" fill="#6095CF"/>
<path d="M23.4299 28.315C22.9035 28.3142 22.3775 28.2865 21.8539 28.232L21.9309 26.764H23.4259C23.2792 24.1163 22.5509 21.5334 21.2929 19.199L22.5699 18.466C23.9594 21.0095 24.7556 23.8343 24.8989 26.729C25.5049 26.629 25.9379 26.479 26.0519 26.284L27.3239 27.026C27.0241 27.3937 26.6477 27.6915 26.2209 27.8988C25.7941 28.106 25.3273 28.2177 24.8529 28.226V28.233H24.8009C24.346 28.2886 23.8882 28.316 23.4299 28.315V28.315Z" fill="#6095CF"/>
<path d="M51.6529 33.29C51.4345 32.5119 50.9674 31.8268 50.3229 31.3393C49.6784 30.8517 48.892 30.5886 48.0839 30.59C47.4429 30.557 45.8099 30.935 45.6629 31.725C45.4409 32.915 47.8049 33.079 48.4739 33.47C49.6299 34.144 49.1159 35.893 50.2569 36.437C51.6419 37.097 51.8069 34.532 51.7279 33.737C51.7127 33.5865 51.6876 33.4372 51.6529 33.29Z" fill="#6095CF"/>
</g>
<defs>
<clipPath id="clip0_2_129">
<rect width="72.001" height="72.001" fill="white" transform="translate(0.00793457)"/>
</clipPath>
</defs>
</svg>
