<svg width="73" height="72" viewBox="0 0 73 72" fill="none" xmlns="http://www.w3.org/2000/svg">
<g clip-path="url(#clip0_2_88)">
<path d="M66.4674 71.751H5.54355C2.62743 71.751 0.255005 69.3785 0.255005 66.4624V5.53854C0.255005 2.62243 2.62743 0.25 5.54355 0.25H66.4674C69.3836 0.25 71.756 2.62243 71.756 5.53854V66.4624C71.756 69.3785 69.3836 71.751 66.4674 71.751Z" fill="white"/>
<path d="M5.54354 0.5C2.76528 0.5 0.505005 2.76028 0.505005 5.53854V66.4624C0.505005 69.2407 2.76528 71.501 5.54354 71.501H66.4674C69.2457 71.501 71.506 69.2407 71.506 66.4624V5.53854C71.506 2.76028 69.2457 0.5 66.4674 0.5H5.54354ZM5.54354 0H66.4674C69.5263 0 72.006 2.47969 72.006 5.53854V66.4624C72.006 69.5213 69.5263 72.001 66.4674 72.001H5.54354C2.4847 72.001 0.00500488 69.5213 0.00500488 66.4624V5.53854C0.00500488 2.47969 2.4847 0 5.54354 0Z" fill="#E7E8E8"/>
<path d="M51.7861 17.887C51.9526 17.6941 52.168 17.5496 52.4096 17.4687C52.6512 17.3877 52.9102 17.3734 53.1594 17.4271C53.4085 17.4808 53.6384 17.6006 53.8252 17.7739C54.0121 17.9472 54.1488 18.1676 54.221 18.412C54.6459 19.8982 54.6158 21.4776 54.1346 22.9465C53.6533 24.4154 52.743 25.7064 51.521 26.653C50.4618 27.4362 49.1972 27.8939 47.882 27.97C46.2402 28.1118 44.5871 27.901 43.0334 27.3519C41.4796 26.8028 40.0612 25.928 38.8731 24.786C38.7121 24.641 38.5601 24.486 38.4051 24.336C37.7758 23.6657 36.9272 23.2428 36.0131 23.144C35.1001 23.2437 34.2527 23.6665 33.6241 24.336C33.4691 24.487 33.3171 24.636 33.1561 24.786C31.9674 25.9281 30.5484 26.8029 28.9942 27.352C27.44 27.9011 25.7864 28.1118 24.1441 27.97C22.8293 27.8933 21.5652 27.4357 20.506 26.653C19.2848 25.7059 18.3755 24.4146 17.8953 22.9457C17.4151 21.4767 17.3861 19.8976 17.8121 18.412C17.884 18.1678 18.0205 17.9476 18.2071 17.7743C18.3936 17.6011 18.6234 17.4814 18.8722 17.4276C19.1211 17.3739 19.3797 17.3882 19.6211 17.469C19.8625 17.5499 20.0778 17.6943 20.2441 17.887M32.3221 22.096L32.417 22.003C33.3615 21.0074 34.6474 20.4055 36.017 20.318C37.3891 20.4038 38.6778 21.0058 39.6241 22.003L32.3221 22.096Z" stroke="#6095CF" stroke-width="1.5" stroke-miterlimit="10" stroke-linecap="round"/>
<path d="M25.3631 20.077C26.5811 21.532 26.685 23.448 25.6 24.357C24.515 25.266 22.6441 24.823 21.4291 23.369C20.2141 21.915 20.106 19.998 21.192 19.089C22.278 18.18 24.1451 18.622 25.3631 20.077Z" stroke="#6095CF" stroke-width="1.5" stroke-miterlimit="10"/>
<path d="M44.37 29.934C44.37 29.934 42.076 30.334 41.558 35.345C41.4626 36.3686 41.1891 37.3675 40.75 38.297C40.4746 38.8746 40.1231 39.4127 39.705 39.897C39.705 39.897 40.405 44.336 39.036 46.173L39.211 46.385C39.4897 46.7257 39.68 47.13 39.7648 47.562C39.8496 47.994 39.8264 48.4402 39.6971 48.861L37.953 54.535H36.0201M27.674 29.933C27.674 29.933 29.9691 30.333 30.4831 35.344C30.5809 36.3673 30.8549 37.366 31.293 38.296C31.5681 38.8733 31.9188 39.4113 32.336 39.896C32.336 39.896 31.636 44.335 33.008 46.172L32.833 46.384C32.5535 46.7243 32.3626 47.1285 32.2773 47.5605C32.1919 47.9925 32.2149 48.439 32.344 48.86L34.09 54.534H36.0201L27.674 29.933Z" stroke="#6095CF" stroke-width="1.5" stroke-miterlimit="10" stroke-linecap="round"/>
<path d="M46.6809 20.077C45.4659 21.532 45.3579 23.448 46.4459 24.357C47.5339 25.266 49.3989 24.823 50.6169 23.369C51.8349 21.915 51.9399 19.998 50.8519 19.089C49.7639 18.18 47.8989 18.622 46.6809 20.077Z" stroke="#6095CF" stroke-width="1.5" stroke-miterlimit="10"/>
<path d="M47.6941 21.515C47.4192 21.8629 47.2503 22.2826 47.208 22.724C47.1925 22.8176 47.197 22.9135 47.2209 23.0053C47.2449 23.0971 47.2878 23.1828 47.347 23.257C47.429 23.3135 47.5278 23.3403 47.627 23.333V23.333C47.9173 23.3028 48.1981 23.2127 48.4516 23.0683C48.7052 22.9238 48.9261 22.7283 49.1001 22.494C49.2846 22.2758 49.4328 22.0293 49.539 21.764C49.231 21.8521 48.908 21.8755 48.5905 21.8328C48.273 21.7901 47.9679 21.6823 47.6941 21.516V21.515Z" fill="#6095CF" stroke="#6095CF"/>
<path d="M24.349 21.515C24.6245 21.8628 24.7943 22.2824 24.838 22.724C24.8521 22.8176 24.847 22.9131 24.8232 23.0047C24.7993 23.0963 24.757 23.1822 24.699 23.257C24.6158 23.314 24.5156 23.3408 24.4151 23.333C24.1252 23.3028 23.8448 23.2126 23.5917 23.0681C23.3386 22.9237 23.1184 22.7282 22.945 22.494C22.7596 22.2758 22.6104 22.0294 22.503 21.764C22.811 21.8521 23.1339 21.8756 23.4514 21.8329C23.769 21.7902 24.0742 21.6823 24.3481 21.516L24.349 21.515Z" fill="#6095CF" stroke="#6095CF"/>
<path d="M32.2981 33.488C33.3382 32.4016 34.5878 31.5373 35.9714 30.9474C37.355 30.3575 38.8439 30.0543 40.348 30.056H40.4281C40.6012 29.5288 40.8272 29.0205 41.103 28.539C39.845 27.9277 38.6847 27.1331 37.66 26.181C37.521 26.054 37.385 25.92 37.252 25.781L37.16 25.689C36.8616 25.3462 36.4632 25.1056 36.021 25.001C35.5796 25.1051 35.1821 25.3454 34.885 25.688L34.799 25.773C34.663 25.909 34.527 26.045 34.385 26.173C33.3598 27.1246 32.1996 27.9196 30.942 28.532C31.687 29.9216 32.1274 31.4539 32.234 33.027C32.251 33.181 32.2761 33.327 32.2981 33.479V33.488Z" fill="#6095CF" stroke="#6095CF"/>
</g>
<defs>
<clipPath id="clip0_2_88">
<rect width="72.001" height="72.001" fill="white" transform="translate(0.00500488)"/>
</clipPath>
</defs>
</svg>
