<svg width="72" height="72" viewBox="0 0 72 72" fill="none" xmlns="http://www.w3.org/2000/svg">
<path d="M66.4624 71.751H5.53854C2.62243 71.751 0.25 69.3785 0.25 66.4624V5.53854C0.25 2.62243 2.62243 0.249998 5.53854 0.249998H66.4624C69.3785 0.249998 71.751 2.62243 71.751 5.53854V66.4624C71.751 69.3785 69.3785 71.751 66.4624 71.751Z" fill="white"/>
<path d="M5.53854 0.5C2.76028 0.5 0.5 2.76028 0.5 5.53854V66.4624C0.5 69.2407 2.76028 71.501 5.53854 71.501H66.4624C69.2407 71.501 71.501 69.2407 71.501 66.4624V5.53854C71.501 2.76028 69.2407 0.5 66.4624 0.5H5.53854ZM5.53854 0H66.4624C69.5213 0 72.001 2.47969 72.001 5.53854V66.4624C72.001 69.5213 69.5213 72.001 66.4624 72.001H5.53854C2.47969 72.001 0 69.5213 0 66.4624V5.53854C0 2.47969 2.47969 0 5.53854 0Z" fill="#E7E8E8"/>
<path d="M48.637 32.735C48.5788 32.7609 48.5264 32.7979 48.4826 32.8441C48.4388 32.8903 48.4045 32.9447 48.3817 33.0042C48.359 33.0636 48.3482 33.127 48.3499 33.1906C48.3517 33.2542 48.366 33.3169 48.392 33.375C49.2777 35.3485 49.7331 37.4879 49.728 39.651C49.7282 42.6927 48.8264 45.6662 47.1367 48.1954C45.4469 50.7246 43.0451 52.6959 40.235 53.86C37.4249 55.0242 34.3326 55.3289 31.3493 54.7356C28.366 54.1423 25.6257 52.6777 23.4748 50.5269C21.3239 48.3762 19.8591 45.6359 19.2656 42.6526C18.6721 39.6694 18.9766 36.5771 20.1406 33.7669C21.3045 30.9567 23.2757 28.5548 25.8048 26.8649C28.3339 25.175 31.3073 24.273 34.349 24.273C35.074 24.2732 35.798 24.3236 36.516 24.424C36.58 24.435 36.6455 24.433 36.7086 24.4182C36.7718 24.4034 36.8314 24.3761 36.8838 24.3378C36.9362 24.2996 36.9804 24.2513 37.0138 24.1956C37.0472 24.14 37.0691 24.0782 37.0783 24.014C37.0874 23.9498 37.0835 23.8843 37.0668 23.8216C37.0502 23.7589 37.0211 23.7002 36.9814 23.6489C36.9417 23.5976 36.892 23.5548 36.8354 23.523C36.7789 23.4913 36.7165 23.4712 36.652 23.464C35.89 23.357 35.1215 23.3032 34.352 23.303C30.8291 23.3058 27.4016 24.4474 24.5806 26.5575C21.7596 28.6676 19.6964 31.6332 18.6987 35.0118C17.701 38.3904 17.8223 42.0011 19.0445 45.3051C20.2667 48.6092 22.5243 51.4296 25.4805 53.3456C28.4367 55.2617 31.9332 56.1707 35.4483 55.937C38.9634 55.7034 42.3088 54.3396 44.9854 52.0491C47.6621 49.7587 49.5265 46.6643 50.3006 43.2275C51.0748 39.7908 50.7171 36.1958 49.281 32.979C49.2548 32.9206 49.2174 32.8679 49.1708 32.824C49.1243 32.7802 49.0695 32.7459 49.0097 32.7232C48.9499 32.7006 48.8861 32.6899 48.8222 32.6919C48.7582 32.694 48.6953 32.7086 48.637 32.735V32.735Z" fill="#6095CF" stroke="#6095CF" stroke-width="0.7"/>
<path d="M33.755 49.443C33.6881 49.1797 33.5671 48.9332 33.3998 48.7192C33.2324 48.5052 33.0224 48.3284 32.783 48.2C32.6414 48.1311 32.4905 48.0833 32.335 48.058C32.3499 47.616 32.2769 47.1754 32.1202 46.7619C31.9635 46.3483 31.7261 45.97 31.422 45.649C30.353 44.504 28.929 44.154 28.182 44.849C27.435 45.544 27.682 46.991 28.754 48.137C29.214 48.6253 29.8037 48.9722 30.454 49.137C30.6644 49.1914 30.8807 49.2199 31.098 49.222C31.3488 49.2262 31.5961 49.1619 31.813 49.036C31.819 49.036 31.826 49.036 31.832 49.036C32.0056 48.9852 32.1915 48.9973 32.357 49.07C32.4769 49.1439 32.5805 49.2412 32.6618 49.3562C32.7431 49.4712 32.8003 49.6014 32.83 49.739C33.304 51.239 33.918 51.939 34.883 52.067C34.9468 52.0771 35.012 52.0743 35.0748 52.0589C35.1375 52.0435 35.1965 52.0156 35.2484 51.9771C35.3002 51.9385 35.3438 51.89 35.3766 51.8343C35.4095 51.7786 35.4308 51.717 35.4395 51.653C35.4481 51.5889 35.4439 51.5238 35.4271 51.4614C35.4102 51.3991 35.3811 51.3407 35.3413 51.2897C35.3016 51.2388 35.2521 51.1963 35.1957 51.1647C35.1393 51.1332 35.0772 51.1132 35.013 51.106C34.643 51.053 34.213 50.879 33.755 49.443ZM31.332 48.222C30.9832 48.2577 30.631 48.2083 30.3054 48.0781C29.9799 47.9478 29.6908 47.7405 29.463 47.474C28.763 46.723 28.554 45.826 28.844 45.557C28.9344 45.4841 29.0492 45.4483 29.165 45.457C29.7702 45.5366 30.3232 45.8411 30.714 46.31C30.9633 46.5554 31.1496 46.8574 31.2572 47.1903C31.3648 47.5232 31.3904 47.8771 31.332 48.222V48.222Z" fill="#6095CF"/>
<path d="M40.788 48.132C39.462 48.98 38.949 49.754 39.074 50.72C39.0893 50.8368 39.1465 50.9441 39.235 51.0219C39.3234 51.0997 39.4372 51.1428 39.555 51.143C39.575 51.143 39.596 51.143 39.617 51.143C39.7445 51.1263 39.8601 51.0598 39.9386 50.958C40.0172 50.8562 40.0522 50.7275 40.036 50.6C39.988 50.228 40.043 49.764 41.31 48.952C41.5478 48.8193 41.7554 48.6384 41.9193 48.4209C42.0832 48.2035 42.1999 47.9542 42.262 47.689C42.2917 47.5351 42.2984 47.3778 42.282 47.222C42.4928 47.1805 42.6976 47.1134 42.892 47.022C43.5008 46.7344 44.0142 46.278 44.371 45.707C44.7258 45.1569 44.9325 44.5244 44.971 43.871C45.0199 43.5819 44.9816 43.2848 44.8611 43.0176C44.7406 42.7503 44.5433 42.5249 44.2943 42.3702C44.0453 42.2155 43.7558 42.1383 43.4629 42.1486C43.1699 42.1589 42.8865 42.2561 42.649 42.428C42.0807 42.7521 41.6057 43.2174 41.27 43.779C40.9148 44.3511 40.7321 45.0136 40.744 45.687C40.7204 46.1666 40.8876 46.6361 41.209 46.993C41.3037 47.1472 41.3392 47.3305 41.309 47.509C41.2675 47.642 41.2001 47.7655 41.1107 47.8725C41.0213 47.9794 40.9116 48.0676 40.788 48.132ZM42.094 44.291C42.3403 43.8751 42.6882 43.5287 43.105 43.284C43.1899 43.1916 43.3043 43.1318 43.4286 43.1147C43.5529 43.0977 43.6792 43.1245 43.7859 43.1906C43.8925 43.2567 43.9727 43.358 44.0127 43.4768C44.0527 43.5957 44.05 43.7249 44.005 43.842C43.9695 44.3242 43.8127 44.7896 43.549 45.195C43.3772 45.5011 43.1338 45.761 42.8397 45.9525C42.5456 46.1441 42.2094 46.2616 41.86 46.295C41.7334 45.967 41.6885 45.6132 41.7293 45.2641C41.7701 44.9149 41.8952 44.5809 42.094 44.291V44.291Z" fill="#6095CF"/>
<path d="M29.064 36.372C29.4864 35.8476 29.7485 35.2126 29.819 34.543C29.8986 33.8931 29.8087 33.2338 29.558 32.629C29.476 32.3473 29.3119 32.0965 29.0867 31.9085C28.8615 31.7205 28.5854 31.6038 28.2936 31.5735C28.0019 31.5431 27.7076 31.6004 27.4486 31.738C27.1895 31.8756 26.9773 32.0872 26.839 32.346C26.4686 32.8858 26.2446 33.5126 26.189 34.165C26.0929 34.7304 26.1705 35.3116 26.4115 35.8321C26.6525 36.3525 27.0456 36.7876 27.539 37.08C27.6881 37.1774 27.7984 37.3238 27.851 37.494C27.8746 37.6336 27.8695 37.7765 27.836 37.9141C27.8024 38.0516 27.7412 38.1809 27.656 38.294C26.835 39.637 26.713 40.558 27.248 41.372C27.3203 41.4756 27.4302 41.5468 27.5542 41.5706C27.6783 41.5945 27.8068 41.5689 27.9123 41.4995C28.0178 41.4301 28.0921 41.3222 28.1193 41.1988C28.1465 41.0755 28.1245 40.9464 28.058 40.839C27.852 40.526 27.699 40.084 28.483 38.8C28.6391 38.577 28.7468 38.3238 28.7993 38.0567C28.8519 37.7896 28.848 37.5145 28.788 37.249C28.7474 37.0975 28.6844 36.9529 28.601 36.82C28.7732 36.6902 28.9287 36.5398 29.064 36.372ZM27.813 36.166C27.5574 35.9263 27.3637 35.6283 27.2484 35.2974C27.1331 34.9665 27.0997 34.6126 27.151 34.266C27.1911 33.7843 27.3525 33.3206 27.62 32.918C27.6768 32.8188 27.7547 32.7334 27.8482 32.6677C27.9417 32.6021 28.0485 32.5578 28.161 32.538H28.191C28.363 32.556 28.542 32.738 28.672 33.025C28.8506 33.4746 28.9128 33.9619 28.853 34.442C28.8314 34.7919 28.7256 35.1314 28.5445 35.4316C28.3634 35.7317 28.1125 35.9837 27.813 36.166Z" fill="#6095CF"/>
<path d="M55.413 15.1L50.984 12.085C50.8774 12.0128 50.7466 11.9855 50.62 12.009C50.5577 12.0204 50.4983 12.0439 50.4451 12.0782C50.3919 12.1125 50.346 12.1569 50.31 12.209L49.082 14.051C49.0462 14.1036 49.0211 14.1627 49.0081 14.225C48.9951 14.2873 48.9946 14.3515 49.0065 14.414C49.0184 14.4766 49.0425 14.5361 49.0774 14.5893C49.1123 14.6425 49.1574 14.6883 49.21 14.724L50.159 15.376L48.959 17.25L46.423 15.521C46.3181 15.4504 46.1899 15.4233 46.0654 15.4455C45.941 15.4677 45.83 15.5375 45.756 15.64L44.27 17.684C44.2325 17.7366 44.2059 17.7961 44.1917 17.8591C44.1775 17.9221 44.1759 17.9873 44.1872 18.0509C44.1985 18.1145 44.2223 18.1752 44.2573 18.2295C44.2923 18.2837 44.3377 18.3305 44.391 18.367L45.062 18.824L36.121 31.959C36.0488 32.0654 36.0218 32.1961 36.0458 32.3224C36.0698 32.4488 36.1429 32.5604 36.249 32.633L37.241 33.308L36.22 34.808C36.1841 34.8605 36.1588 34.9197 36.1458 34.982C36.1328 35.0443 36.1322 35.1086 36.1441 35.1711C36.156 35.2337 36.1801 35.2933 36.2151 35.3464C36.2501 35.3996 36.2953 35.4453 36.348 35.481L37.341 36.157L35.472 38.9C35.4093 39.0061 35.3893 39.1321 35.4162 39.2524C35.443 39.3727 35.5146 39.4782 35.6165 39.5476C35.7183 39.617 35.8428 39.645 35.9645 39.6259C36.0863 39.6069 36.1962 39.5422 36.272 39.445L38.143 36.7L39.136 37.376C39.2166 37.4307 39.3117 37.46 39.409 37.46C39.4392 37.46 39.4694 37.457 39.499 37.451C39.6249 37.4278 39.7367 37.356 39.81 37.251L40.831 35.751L41.823 36.427C41.9035 36.4817 41.9987 36.511 42.096 36.511C42.1262 36.511 42.1564 36.508 42.186 36.502C42.2485 36.4908 42.3081 36.4673 42.3615 36.433C42.4148 36.3987 42.4609 36.3542 42.497 36.302L43.672 34.576L51.437 23.167L51.892 23.477C51.9969 23.5476 52.1251 23.5747 52.2496 23.5525C52.3741 23.5303 52.485 23.4606 52.559 23.358L54.045 21.314C54.0826 21.2614 54.1093 21.2018 54.1235 21.1388C54.1377 21.0757 54.1392 21.0105 54.1278 20.9468C54.1164 20.8832 54.0925 20.8225 54.0573 20.7682C54.0221 20.714 53.9765 20.6673 53.923 20.631L51.7 19.093L52.9 17.219L53.641 17.747C53.7216 17.8017 53.8167 17.831 53.914 17.831C53.9442 17.8308 53.9743 17.8282 54.004 17.823C54.1294 17.7985 54.2407 17.727 54.315 17.623L55.543 15.78C55.5799 15.7271 55.6058 15.6673 55.6192 15.6042C55.6326 15.5411 55.6333 15.476 55.6211 15.4126C55.609 15.3493 55.5844 15.289 55.5486 15.2353C55.5129 15.1816 55.4668 15.1356 55.413 15.1ZM39.281 36.306L38.288 35.63L37.296 34.955L38.045 33.855L39.48 34.832L40.031 35.207L39.281 36.306ZM49.996 23.558L48.987 22.872C48.9345 22.8362 48.8754 22.8111 48.8132 22.7982C48.751 22.7852 48.6868 22.7846 48.6244 22.7965C48.5619 22.8083 48.5024 22.8323 48.4493 22.8672C48.3961 22.902 48.3503 22.947 48.3145 22.9995C48.2787 23.052 48.2536 23.1111 48.2407 23.1733C48.2277 23.2356 48.2272 23.2997 48.239 23.3622C48.2508 23.4246 48.2749 23.4841 48.3097 23.5373C48.3445 23.5904 48.3895 23.6362 48.442 23.672L49.45 24.359L48.665 25.514L46.565 24.088C46.5127 24.0472 46.4526 24.0176 46.3884 24.001C46.3242 23.9844 46.2573 23.9811 46.1918 23.9913C46.1263 24.0016 46.0636 24.0252 46.0075 24.0606C45.9515 24.0961 45.9033 24.1426 45.866 24.1974C45.8286 24.2522 45.8029 24.3141 45.7905 24.3792C45.778 24.4444 45.779 24.5114 45.7934 24.5761C45.8079 24.6408 45.8354 24.7019 45.8744 24.7555C45.9134 24.8092 45.9629 24.8543 46.02 24.888L48.12 26.313L47.236 27.613L46.389 27.036C46.3367 26.9959 46.2767 26.967 46.2128 26.9509C46.1489 26.9347 46.0824 26.9318 46.0173 26.9423C45.9522 26.9527 45.8899 26.9763 45.8343 27.0117C45.7787 27.047 45.7308 27.0933 45.6936 27.1477C45.6565 27.2022 45.6308 27.2636 45.6182 27.3283C45.6056 27.393 45.6063 27.4596 45.6203 27.524C45.6342 27.5884 45.6612 27.6493 45.6995 27.703C45.7378 27.7566 45.7866 27.8019 45.843 27.836L46.691 28.413L45.905 29.568L43.971 28.251C43.8649 28.1867 43.7382 28.1656 43.6169 28.1919C43.4957 28.2182 43.3892 28.29 43.3192 28.3925C43.2493 28.4949 43.2213 28.6203 43.241 28.7428C43.2606 28.8653 43.3265 28.9756 43.425 29.051L45.359 30.367L44.476 31.667L43.789 31.2C43.6829 31.1277 43.5525 31.1006 43.4264 31.1245C43.3002 31.1484 43.1888 31.2214 43.1165 31.3275C43.0442 31.4336 43.0171 31.564 43.041 31.6902C43.0649 31.8163 43.1379 31.9277 43.244 32L43.93 32.467L43.145 33.622L41.371 32.415C41.2649 32.3523 41.1389 32.3323 41.0186 32.3592C40.8984 32.386 40.7928 32.4576 40.7234 32.5595C40.654 32.6613 40.626 32.7858 40.6451 32.9075C40.6641 33.0293 40.7288 33.1392 40.826 33.215L42.599 34.421L41.969 35.346L37.196 32.1L45.863 19.369L50.636 22.618L49.996 23.558ZM52.968 21.149L52.046 22.4L46.913 18.914L46.004 18.295L45.343 17.845L46.265 16.589L50.572 19.52L52.968 21.149ZM50.898 18.543L49.761 17.8L50.961 15.926L52.097 16.67L50.898 18.543ZM53.785 16.669L52.823 16.014L50.156 14.2L50.839 13.159L54.467 15.629L53.785 16.669Z" fill="#6095CF"/>
<path d="M43.2881 28.3628L45.6611 30.0078" stroke="#6095CF"/>
<path d="M40.6382 32.5342L42.896 34.0508" stroke="#6095CF"/>
<path d="M45.854 24.166L48.4419 25.959" stroke="#6095CF"/>
</svg>
