<svg width="73" height="72" viewBox="0 0 73 72" fill="none" xmlns="http://www.w3.org/2000/svg">
<g clip-path="url(#clip0_2_146)">
<path d="M66.4714 71.751H5.54745C2.63134 71.751 0.258911 69.3785 0.258911 66.4624V5.53854C0.258911 2.62243 2.63134 0.25 5.54745 0.25H66.4714C69.3875 0.25 71.7599 2.62243 71.7599 5.53854V66.4624C71.7599 69.3785 69.3875 71.751 66.4714 71.751Z" fill="white"/>
<path d="M5.54745 0.5C2.76919 0.5 0.508911 2.76028 0.508911 5.53854V66.4624C0.508911 69.2407 2.76919 71.501 5.54745 71.501H66.4714C69.2496 71.501 71.5099 69.2407 71.5099 66.4624V5.53854C71.5099 2.76028 69.2496 0.5 66.4714 0.5H5.54745ZM5.54745 0H66.4714C69.5302 0 72.0099 2.47969 72.0099 5.53854V66.4624C72.0099 69.5213 69.5302 72.001 66.4714 72.001H5.54745C2.4886 72.001 0.00891113 69.5213 0.00891113 66.4624V5.53854C0.00891113 2.47969 2.4886 0 5.54745 0Z" fill="#E7E8E8"/>
<path d="M26.4009 34.214C25.7638 34.214 25.1335 34.0833 24.5489 33.83L24.4869 33.8C20.5509 31.731 20.0089 28.4 20.0089 25.106C20.0089 21.812 20.5439 18.485 24.4269 16.44L24.4779 16.415C25.3204 16.0348 26.2567 15.9131 27.1684 16.0655C28.08 16.2179 28.9259 16.6374 29.5989 17.271C30.1357 17.7746 30.5072 18.4292 30.6645 19.1483C30.8218 19.8674 30.7574 20.6172 30.4799 21.299L28.8049 20.611C28.9438 20.2695 28.9759 19.894 28.897 19.5339C28.8181 19.1738 28.6319 18.8461 28.3629 18.594C27.9535 18.2079 27.4395 17.951 26.8849 17.8553C26.3304 17.7596 25.76 17.8294 25.2449 18.056C22.3939 19.569 21.8199 21.877 21.8199 25.106C21.8199 29.453 23.1499 31.043 25.2979 32.181C25.8069 32.3945 26.367 32.4553 26.91 32.3561C27.453 32.2568 27.9553 32.0018 28.3559 31.622C28.6236 31.3727 28.8102 31.0488 28.8915 30.6921C28.9728 30.3355 28.9451 29.9627 28.8119 29.622L30.4939 28.953C30.761 29.6322 30.818 30.3759 30.6575 31.0878C30.497 31.7997 30.1265 32.4471 29.5939 32.946C28.7309 33.7614 27.5882 34.2152 26.4009 34.214Z" fill="#6095CF"/>
<path d="M45.2169 34.212C44.0271 34.2123 42.8823 33.7576 42.0169 32.941C41.4851 32.4493 41.1139 31.8087 40.9519 31.1027C40.7899 30.3968 40.8446 29.6584 41.1089 28.984L42.7979 29.638C42.6657 29.9756 42.6385 30.3452 42.7198 30.6985C42.8012 31.0518 42.9873 31.3723 43.2539 31.618C43.6624 32.0051 44.1763 32.2629 44.7308 32.359C45.2854 32.4551 45.856 32.3851 46.3709 32.158C49.2219 30.645 49.7959 28.337 49.7959 25.108C49.7959 20.761 48.4659 19.171 46.3189 18.034C45.8094 17.8208 45.249 17.7599 44.7057 17.859C44.1623 17.958 43.6594 18.2127 43.2579 18.592C42.9874 18.8441 42.7999 19.1725 42.7201 19.5335C42.6402 19.8946 42.6719 20.2713 42.8109 20.614L41.1359 21.302C40.8582 20.6196 40.794 19.8689 40.9519 19.1492C41.1097 18.4295 41.4821 17.7746 42.0199 17.271C42.6825 16.6463 43.5136 16.2293 44.4106 16.0717C45.3075 15.9141 46.231 16.0226 47.0669 16.384L47.1299 16.414C51.0649 18.483 51.6079 21.814 51.6079 25.108C51.6079 28.402 51.0729 31.729 47.1899 33.774L47.1399 33.798C46.5355 34.0707 45.88 34.2118 45.2169 34.212V34.212Z" fill="#6095CF"/>
<path d="M38.2029 41.222H36.3919V31.065C36.3919 27.585 37.2569 25.197 38.9609 23.965C40.3939 22.93 42.2609 22.787 44.5219 23.54L43.9489 25.258C42.2769 24.7 40.9549 24.758 40.0209 25.434C38.8139 26.304 38.2029 28.197 38.2029 31.063V41.222Z" fill="#6095CF"/>
<path d="M33.4129 41.351V31.065C33.4129 28.2 32.8019 26.306 31.5959 25.437C30.6629 24.764 29.3479 24.703 27.6849 25.255L27.1149 23.536C29.3609 22.791 31.2239 22.936 32.6549 23.968C34.3549 25.197 35.2239 27.584 35.2239 31.068V41.354L33.4129 41.351Z" fill="#6095CF"/>
<path d="M35.7569 55.033C34.7855 55.0026 33.8336 54.7516 32.9736 54.2988C32.1136 53.8461 31.3678 53.2036 30.7929 52.42C29.5892 50.9276 28.9116 49.0797 28.8649 47.163C28.8651 46.177 29.0771 45.2025 29.4863 44.3054C29.8955 43.4083 30.4924 42.6095 31.2369 41.963C32.0932 41.2386 33.1046 40.7206 34.1929 40.449C34.9964 40.26 35.8274 40.218 36.6459 40.325H36.6769C36.7879 40.34 36.9039 40.359 37.0419 40.386H37.0589L37.1239 40.398C37.2589 40.425 37.3859 40.455 37.5099 40.487C38.1599 40.6518 38.7798 40.918 39.3469 41.276L39.4269 41.327L39.4449 41.339C40.0079 41.6981 40.5167 42.1359 40.9559 42.639L40.9849 42.674C41.0689 42.774 41.1539 42.874 41.2369 42.984C42.1553 44.1805 42.6515 45.6476 42.6479 47.156C42.601 49.0729 41.9229 50.9207 40.7189 52.413C40.1451 53.1979 39.4001 53.8418 38.5403 54.2958C37.6805 54.7498 36.7287 55.0019 35.7569 55.033V55.033ZM35.7569 42.081C35.3707 42.0819 34.9859 42.1269 34.6099 42.215C33.8027 42.4178 33.0525 42.8026 32.4169 43.34C31.8703 43.8158 31.4321 44.4033 31.1316 45.0627C30.8311 45.7222 30.6754 46.4383 30.6749 47.163C30.6749 49.907 32.9419 53.222 35.7559 53.222C38.5699 53.222 40.8379 49.907 40.8379 47.163C40.8405 46.0523 40.4751 44.972 39.7989 44.091C39.7369 44.01 39.6719 43.931 39.6079 43.857L39.5829 43.827C39.259 43.4588 38.8846 43.1383 38.4709 42.875L38.3989 42.829C37.9997 42.5761 37.5644 42.3852 37.1079 42.263L37.0629 42.252C36.9679 42.227 36.8689 42.204 36.7629 42.182L36.7019 42.171C36.6149 42.154 36.5249 42.139 36.4339 42.126H36.4129C36.1954 42.0969 35.9763 42.0819 35.7569 42.081Z" fill="#6095CF"/>
</g>
<defs>
<clipPath id="clip0_2_146">
<rect width="72.001" height="72.001" fill="white" transform="translate(0.00891113)"/>
</clipPath>
</defs>
</svg>
