<svg width="73" height="72" viewBox="0 0 73 72" fill="none" xmlns="http://www.w3.org/2000/svg">
<g clip-path="url(#clip0_2_33)">
<path d="M66.4644 71.751H5.54054C2.62443 71.751 0.251999 69.3785 0.251999 66.4624V5.53854C0.251999 2.62243 2.62443 0.25 5.54054 0.25H66.4644C69.3805 0.25 71.753 2.62243 71.753 5.53854V66.4624C71.753 69.3785 69.3805 71.751 66.4644 71.751Z" fill="white"/>
<path d="M5.54053 0.5C2.76228 0.5 0.501999 2.76028 0.501999 5.53854V66.4624C0.501999 69.2407 2.76228 71.501 5.54053 71.501H66.4644C69.2427 71.501 71.503 69.2407 71.503 66.4624V5.53854C71.503 2.76028 69.2427 0.5 66.4644 0.5H5.54053ZM5.54053 0H66.4644C69.5233 0 72.003 2.47969 72.003 5.53854V66.4624C72.003 69.5213 69.5233 72.001 66.4644 72.001H5.54053C2.48169 72.001 0.0019989 69.5213 0.0019989 66.4624V5.53854C0.0019989 2.47969 2.48169 0 5.54053 0Z" fill="#E7E8E8"/>
<path d="M36.08 30.603C37.1553 30.603 38.2065 30.9219 39.1006 31.5193C39.9947 32.1167 40.6916 32.9659 41.1031 33.9593C41.5146 34.9528 41.6223 36.046 41.4125 37.1007C41.2027 38.1554 40.6849 39.1242 39.9245 39.8845C39.1641 40.6449 38.1953 41.1627 37.1407 41.3725C36.086 41.5823 34.9928 41.4746 33.9993 41.0631C33.0058 40.6516 32.1567 39.9547 31.5593 39.0606C30.9618 38.1665 30.643 37.1153 30.643 36.04C30.643 34.598 31.2158 33.2151 32.2354 32.1955C33.2551 31.1758 34.638 30.603 36.08 30.603V30.603Z" fill="#FFDEBC"/>
<path d="M57.883 35.352C57.483 34.931 48.012 25 36.078 25C24.144 25 14.671 34.93 14.275 35.352C14.0991 35.5377 14.0011 35.7837 14.0011 36.0395C14.0011 36.2952 14.0991 36.5413 14.275 36.727C14.675 37.148 24.145 47.083 36.075 47.083C48.005 47.083 57.488 37.148 57.883 36.727C58.0588 36.5413 58.1568 36.2952 58.1568 36.0395C58.1568 35.7837 58.0588 35.5377 57.883 35.352V35.352ZM36.083 44.445C34.4205 44.4446 32.7956 43.9513 31.4135 43.0274C30.0314 42.1036 28.9543 40.7907 28.3183 39.2547C27.6824 37.7187 27.5162 36.0287 27.8406 34.3982C28.1651 32.7678 28.9658 31.2701 30.1414 30.0947C31.317 28.9193 32.8147 28.1188 34.4452 27.7945C36.0756 27.4702 37.7657 27.6366 39.3016 28.2728C40.8375 28.9089 42.1503 29.9862 43.0739 31.3684C43.9976 32.7505 44.4908 34.3756 44.491 36.038C44.4912 37.1422 44.2739 38.2356 43.8515 39.2558C43.429 40.2759 42.8097 41.2029 42.0288 41.9836C41.248 42.7643 40.321 43.3835 39.3008 43.8059C38.2806 44.2282 37.1871 44.4454 36.083 44.445V44.445ZM29.416 28.104C28.2442 29.068 27.3005 30.2796 26.6526 31.6516C26.0047 33.0237 25.6687 34.5222 25.6687 36.0395C25.6687 37.5568 26.0047 39.0553 26.6526 40.4274C27.3005 41.7994 28.2442 43.011 29.416 43.975C24.5795 42.2709 20.1565 39.5668 16.435 36.039C20.157 32.5122 24.58 29.8085 29.416 28.104V28.104ZM42.746 43.972C43.9181 43.0089 44.8622 41.798 45.5104 40.4264C46.1586 39.0548 46.4948 37.5566 46.4948 36.0395C46.4948 34.5224 46.1586 33.0242 45.5104 31.6526C44.8622 30.281 43.9181 29.0701 42.746 28.107C47.581 29.8103 52.003 32.513 55.724 36.039C52.0016 39.5642 47.5796 42.2673 42.745 43.973L42.746 43.972Z" fill="#6095CF" stroke="white" stroke-width="0.4"/>
<path d="M37.133 33.691C37.6286 33.691 38.1131 33.838 38.5252 34.1133C38.9373 34.3887 39.2585 34.7801 39.4482 35.238C39.6379 35.6959 39.6875 36.1998 39.5908 36.6859C39.4941 37.172 39.2554 37.6185 38.905 37.969C38.5545 38.3195 38.108 38.5582 37.6219 38.6548C37.1357 38.7515 36.6319 38.7019 36.174 38.5122C35.716 38.3226 35.3247 38.0014 35.0493 37.5893C34.7739 37.1771 34.627 36.6926 34.627 36.197C34.627 35.5324 34.891 34.895 35.361 34.425C35.8309 33.955 36.4683 33.691 37.133 33.691V33.691Z" fill="#6095CF"/>
<path d="M35.5245 34.4545L53.283 50.668L51.126 52.753L35.5245 34.4545Z" fill="#6095CF"/>
</g>
<defs>
<clipPath id="clip0_2_33">
<rect width="72.001" height="72.001" fill="white" transform="translate(0.0019989)"/>
</clipPath>
</defs>
</svg>
