<svg width="73" height="72" viewBox="0 0 73 72" fill="none" xmlns="http://www.w3.org/2000/svg">
<g clip-path="url(#clip0_2_180)">
<path d="M66.4634 71.751H5.53954C2.62343 71.751 0.250999 69.3785 0.250999 66.4624V5.53854C0.250999 2.62243 2.62343 0.249998 5.53954 0.249998H66.4634C69.3795 0.249998 71.752 2.62243 71.752 5.53854V66.4624C71.752 69.3785 69.3795 71.751 66.4634 71.751Z" fill="white"/>
<path d="M5.53954 0.5C2.76128 0.5 0.500999 2.76028 0.500999 5.53854V66.4624C0.500999 69.2407 2.76128 71.501 5.53954 71.501H66.4634C69.2417 71.501 71.502 69.2407 71.502 66.4624V5.53854C71.502 2.76028 69.2417 0.5 66.4634 0.5H5.53954ZM5.53954 0H66.4634C69.5223 0 72.002 2.47969 72.002 5.53854V66.4624C72.002 69.5213 69.5223 72.001 66.4634 72.001H5.53954C2.48069 72.001 0.000999451 69.5213 0.000999451 66.4624V5.53854C0.000999451 2.47969 2.48069 0 5.53954 0Z" fill="#E7E8E8"/>
<path d="M50.806 24.773C49.9799 24.773 49.1723 24.528 48.4854 24.069C47.7985 23.6101 47.2631 22.9577 46.947 22.1945C46.6308 21.4312 46.5481 20.5914 46.7093 19.7811C46.8704 18.9709 47.2683 18.2266 47.8524 17.6424C48.4366 17.0583 49.1809 16.6604 49.9911 16.4993C50.8014 16.3381 51.6412 16.4208 52.4045 16.737C53.1677 17.0531 53.8201 17.5885 54.2791 18.2754C54.738 18.9623 54.983 19.7699 54.983 20.596C54.9817 21.7034 54.5412 22.7651 53.7581 23.5481C52.9751 24.3312 51.9134 24.7717 50.806 24.773V24.773ZM50.806 17.792C50.2522 17.792 49.7109 17.9562 49.2504 18.2639C48.7899 18.5716 48.4311 19.0089 48.2192 19.5205C48.0072 20.0321 47.9518 20.5951 48.0598 21.1383C48.1678 21.6814 48.4345 22.1803 48.8261 22.5719C49.2177 22.9635 49.7166 23.2302 50.2597 23.3382C50.8029 23.4462 51.3659 23.3908 51.8775 23.1789C52.3891 22.9669 52.8265 22.6081 53.1341 22.1476C53.4418 21.6871 53.606 21.1458 53.606 20.592C53.6031 19.8507 53.307 19.1406 52.7824 18.6167C52.2579 18.0929 51.5474 17.7979 50.806 17.796V17.792Z" fill="#6095CF"/>
<path d="M32.86 39.756L32.911 39.842C33.0166 40.0224 33.1315 40.1973 33.255 40.366C33.355 40.513 33.472 40.666 33.581 40.81V40.815C34.0446 41.3053 34.3673 41.9116 34.515 42.57C34.5137 43.0099 34.3384 43.4313 34.0274 43.7423C33.7163 44.0534 33.2949 44.2287 32.855 44.23V44.23C32.675 44.23 32.4963 44.2003 32.326 44.142C31.9971 44.0308 31.7114 43.8192 31.5092 43.537C31.307 43.2547 31.1985 42.9162 31.199 42.569C31.3473 41.9085 31.6714 41.3004 32.137 40.809C32.3797 40.499 32.6041 40.1752 32.809 39.839L32.86 39.756Z" fill="#6095CF"/>
<path d="M27.0511 31.0753L26.352 32.257L29.4857 34.1108L30.1848 32.9291L27.0511 31.0753Z" fill="#6095CF"/>
<path d="M29.1862 34.7546L26.192 35.524L26.5339 36.8544L29.5281 36.085L29.1862 34.7546Z" fill="#6095CF"/>
<path d="M30.1678 36.5368L28.396 39.532L29.5777 40.2311L31.3495 37.2359L30.1678 36.5368Z" fill="#6095CF"/>
<path d="M26.087 55.971H18.019V41.809H22.482V45.071H30.722V48.071C30.7204 49.363 30.2495 50.6104 29.3969 51.5811C28.5442 52.5519 27.368 53.1798 26.087 53.348V55.971ZM19.392 54.598H24.713V52.026H25.4C26.4467 52.0247 27.4501 51.6083 28.1902 50.8682C28.9303 50.1281 29.3467 49.1247 29.348 48.078V46.447H21.108V43.185H19.391L19.392 54.598Z" fill="#6095CF"/>
<path d="M48.56 40.279L42.738 34.495L47.082 30.151C47.6597 29.5755 48.0534 28.8414 48.2133 28.0418C48.3731 27.2422 48.2918 26.4131 47.9798 25.6598C47.6677 24.9064 47.1389 24.2628 46.4604 23.8104C45.782 23.3581 44.9844 23.1174 44.169 23.119H31.523V34.048C31.523 34.6008 31.6968 35.1397 32.0198 35.5883C32.3428 36.037 32.7987 36.3727 33.323 36.548C33.5072 36.872 33.7346 37.1694 33.999 37.432L41.537 44.921V51.961C41.537 53.0537 41.9711 54.1017 42.7437 54.8743C43.5164 55.647 44.5643 56.081 45.657 56.081C46.7497 56.081 47.7976 55.647 48.5703 54.8743C49.3429 54.1017 49.777 53.0537 49.777 51.961V43.206C49.7749 42.1077 49.3373 41.055 48.56 40.279ZM48.403 51.956C48.41 52.3211 48.3441 52.6839 48.2092 53.0232C48.0743 53.3626 47.8731 53.6716 47.6174 53.9322C47.3616 54.1929 47.0565 54.3999 46.7198 54.5413C46.3832 54.6826 46.0217 54.7554 45.6565 54.7554C45.2914 54.7554 44.9298 54.6826 44.5932 54.5413C44.2565 54.3999 43.9514 54.1929 43.6956 53.9322C43.4399 53.6716 43.2387 53.3626 43.1038 53.0232C42.9689 52.6839 42.903 52.3211 42.91 51.956V44.63C42.9103 44.5397 42.8928 44.4502 42.8585 44.3666C42.8242 44.283 42.7737 44.2071 42.71 44.143L35.042 36.525C35.5531 36.342 35.9953 36.0057 36.3081 35.562C36.621 35.1183 36.7893 34.5889 36.79 34.046V30.734L39.2 28.324H42.054V26.951H35.417V30.451V34.051C35.417 34.3849 35.2843 34.7052 35.0482 34.9413C34.8121 35.1774 34.4919 35.31 34.158 35.31C33.8241 35.31 33.5039 35.1774 33.2678 34.9413C33.0316 34.7052 32.899 34.3849 32.899 34.051V24.495H43.899C43.9383 24.4984 43.9777 24.4984 44.017 24.495C44.1717 24.4864 44.327 24.4908 44.481 24.508C45.0998 24.5754 45.6766 24.8532 46.115 25.295C46.6294 25.8104 46.9183 26.5088 46.9183 27.237C46.9183 27.9652 46.6294 28.6636 46.115 29.179L41.284 34.01C41.22 34.0738 41.1692 34.1496 41.1345 34.2331C41.0999 34.3166 41.0821 34.4061 41.0821 34.4965C41.0821 34.5869 41.0999 34.6764 41.1345 34.7599C41.1692 34.8434 41.22 34.9192 41.284 34.983L47.595 41.253C48.1123 41.7696 48.4039 42.47 48.406 43.201L48.403 51.956ZM36.787 28.792V28.324H37.255L36.787 28.792Z" fill="#6095CF"/>
</g>
<defs>
<clipPath id="clip0_2_180">
<rect width="72.001" height="72.001" fill="white" transform="translate(0.000999451)"/>
</clipPath>
</defs>
</svg>
