<svg width="73" height="72" viewBox="0 0 73 72" fill="none" xmlns="http://www.w3.org/2000/svg">
<g clip-path="url(#clip0_2_260)">
<path d="M66.4674 71.751H5.54355C2.62743 71.751 0.255005 69.3785 0.255005 66.4624V5.53854C0.255005 2.62243 2.62743 0.249998 5.54355 0.249998H66.4674C69.3836 0.249998 71.756 2.62243 71.756 5.53854V66.4624C71.756 69.3785 69.3836 71.751 66.4674 71.751Z" fill="white"/>
<path d="M5.54354 0.5C2.76528 0.5 0.505005 2.76028 0.505005 5.53854V66.4624C0.505005 69.2407 2.76528 71.501 5.54354 71.501H66.4674C69.2457 71.501 71.506 69.2407 71.506 66.4624V5.53854C71.506 2.76028 69.2457 0.5 66.4674 0.5H5.54354ZM5.54354 0H66.4674C69.5263 0 72.006 2.47969 72.006 5.53854V66.4624C72.006 69.5213 69.5263 72.001 66.4674 72.001H5.54354C2.4847 72.001 0.00500488 69.5213 0.00500488 66.4624V5.53854C0.00500488 2.47969 2.4847 0 5.54354 0Z" fill="#E7E8E8"/>
<path d="M28.204 26.583L28.174 25.638L28.189 26.11L28.171 25.638C29.1767 25.5136 30.1175 25.0747 30.859 24.384C32.659 22.79 33.673 19.906 33.779 16.045L34.724 16.071C34.608 20.302 33.5 23.354 31.424 25.143C30.5326 25.9555 29.4039 26.4602 28.204 26.583V26.583Z" fill="#6095CF"/>
<path d="M39.7 53.167C34.227 52.544 33.61 48.838 33.586 48.68L33.118 48.748L32.65 48.814C32.826 49.6995 33.2152 50.5288 33.784 51.23C34.0229 51.5349 34.2886 51.8177 34.578 52.075C34.4585 52.7817 34.1718 53.4495 33.742 54.023L34.116 54.312L34.489 54.602C34.9106 54.0338 35.2254 53.3938 35.418 52.713C36.6854 53.4886 38.1129 53.9651 39.592 54.106L39.7 53.167Z" fill="#6095CF"/>
<path d="M30.979 36.899C28.045 29.718 28.436 24.317 29.279 21.051C29.7345 19.0816 30.6067 17.2328 31.8371 15.629L31.484 15.315L31.131 15.001C29.8049 16.6951 28.866 18.6591 28.38 20.755C27.4525 24.5906 27.4999 28.5974 28.5181 32.41C27.0305 31.4866 25.9416 30.0407 25.465 28.356C24.7973 26.1539 24.819 23.8004 25.5271 21.611C27.0551 16.877 25.585 15.222 25.412 15.049L24.736 15.71C24.749 15.724 25.98 17.132 24.628 21.321C23.8608 23.6981 23.8389 26.253 24.565 28.643C24.8669 29.7363 25.4065 30.7494 26.1453 31.61C26.8842 32.4705 27.804 33.1572 28.839 33.621C29.1933 34.8551 29.615 36.069 30.102 37.257C31.702 41.18 33.402 46.645 32.361 50.399C32.2642 50.9613 32.0477 51.4963 31.7261 51.9677C31.4045 52.439 30.9853 52.8357 30.497 53.131L30.852 54.007C31.8381 53.4856 32.5907 52.6108 32.959 51.558C34.643 47.563 32.811 41.383 30.979 36.899Z" fill="#6095CF"/>
<path d="M47.953 57.489H28.129C26.629 57.489 25.646 57.099 25.118 56.298C24.276 55.021 25.025 53.273 25.572 51.998C25.672 51.765 25.766 51.544 25.837 51.359C25.9 51.194 25.98 51.011 26.072 50.8C26.954 48.786 29.019 44.068 24.033 35.2C18.222 24.865 20.378 19.172 20.473 18.935L21.98 19.535L21.227 19.235L21.982 19.535C21.6302 20.7622 21.5239 22.0467 21.669 23.315C22.1381 27.2366 23.4252 31.0161 25.447 34.409C27.74 38.487 28.892 42.27 28.872 45.653C28.859 47.6586 28.4106 49.6376 27.558 51.453C27.474 51.644 27.402 51.809 27.358 51.937C27.276 52.154 27.175 52.389 27.068 52.637C26.712 53.468 26.116 54.859 26.477 55.407C26.677 55.707 27.262 55.869 28.134 55.869H47.958C48.3994 55.8758 48.8274 55.7174 49.158 55.425C49.204 55.383 49.431 55.168 49.398 55.045C49.365 54.922 48.885 53.757 42.798 52.44C30.98 49.883 34.243 30.975 35.998 20.817C36.098 20.217 36.198 19.641 36.291 19.103L37.891 19.372C37.8 19.912 37.701 20.487 37.596 21.093C36.723 26.152 35.527 33.08 35.896 39.108C36.324 46.05 38.696 49.892 43.14 50.854C48.14 51.936 50.555 53.098 50.966 54.622C51.054 54.9885 51.0335 55.3727 50.9071 55.7278C50.7807 56.0828 50.5538 56.3935 50.254 56.622C49.6227 57.1889 48.8015 57.4983 47.953 57.489Z" fill="#6095CF"/>
</g>
<defs>
<clipPath id="clip0_2_260">
<rect width="72.001" height="72.001" fill="white" transform="translate(0.00500488)"/>
</clipPath>
</defs>
</svg>
